<svg width="32" height="32" viewBox="0 0 32 32" fill="none" xmlns="http://www.w3.org/2000/svg">
<circle cx="16" cy="16" r="16" fill="white"/>
<path d="M6.83331 24.3333H10.1666V15.1667H6.83331V24.3333ZM22.6666 20.1667H16.8333L15.0916 19.5583L15.3666 18.775L16.8333 19.3333H19.1833C19.725 19.3333 20.1666 18.8917 20.1666 18.35C20.1666 17.9417 19.9083 17.575 19.525 17.425L13.475 15.1667H11.8333V22.6833L17.6666 24.3333L24.3333 21.8333C24.325 20.9167 23.5916 20.1667 22.6666 20.1667ZM17.6666 7.25L11.8333 11.4167V13.5H13.5L20.2833 16.2167C21.2166 16.5917 21.8333 17.4917 21.8333 18.5H23.5V11.4167L17.6666 7.25ZM17.25 14.3333H16.4166V13.5H17.25V14.3333ZM17.25 12.6667H16.4166V11.8333H17.25V12.6667ZM18.9166 14.3333H18.0833V13.5H18.9166V14.3333ZM18.9166 12.6667H18.0833V11.8333H18.9166V12.6667Z" fill="url(#paint0_linear_158_19285)"/>
<defs>
<linearGradient id="paint0_linear_158_19285" x1="15.5833" y1="7.25" x2="15.5833" y2="24.3333" gradientUnits="userSpaceOnUse">
<stop stop-color="#FFB60D"/>
<stop offset="1" stop-color="#E59317"/>
</linearGradient>
</defs>
</svg>
