<svg width="333" height="158" viewBox="0 0 333 158" fill="none" xmlns="http://www.w3.org/2000/svg">
<path d="M260.121 23.7378H178.465V22.0681H141.439V23.7378H59.4472C57.9822 23.7378 56.5772 24.3152 55.5412 25.343C54.5053 26.3708 53.9233 27.7648 53.9233 29.2183V140.152C53.9233 141.606 54.5053 143 55.5412 144.027C56.5772 145.055 57.9822 145.633 59.4472 145.633H260.121C261.586 145.633 262.991 145.055 264.027 144.027C265.063 143 265.645 141.606 265.645 140.152V29.2177C265.644 27.7643 265.062 26.3705 264.026 25.3428C262.99 24.3151 261.586 23.7378 260.121 23.7378Z" fill="#3F3D56"/>
<path d="M258.239 33.4226H61.3291V143.629H258.239V33.4226Z" fill="#E6E6E6"/>
<path d="M249.955 39.2505H69.6799V134.51H249.955V39.2505Z" fill="white"/>
<path d="M159.616 30.4173C160.731 30.4173 161.635 29.5202 161.635 28.4135C161.635 27.3068 160.731 26.4097 159.616 26.4097C158.5 26.4097 157.596 27.3068 157.596 28.4135C157.596 29.5202 158.5 30.4173 159.616 30.4173Z" fill="#106314"/>
<path d="M271.173 141.625H251.956V140.251C251.956 140.179 251.927 140.109 251.875 140.058C251.824 140.007 251.754 139.979 251.681 139.979H245.092C245.02 139.979 244.95 140.007 244.898 140.058C244.847 140.109 244.818 140.179 244.818 140.251V141.625H240.7V140.251C240.7 140.179 240.671 140.109 240.62 140.058C240.568 140.007 240.498 139.979 240.425 139.979H233.837C233.764 139.979 233.694 140.007 233.643 140.058C233.591 140.109 233.562 140.179 233.562 140.251V141.625H229.444V140.251C229.444 140.179 229.415 140.109 229.364 140.058C229.312 140.007 229.243 139.979 229.17 139.979H222.581C222.508 139.979 222.438 140.007 222.387 140.058C222.335 140.109 222.306 140.179 222.306 140.251V141.625H218.189V140.251C218.189 140.179 218.16 140.109 218.108 140.058C218.057 140.007 217.987 139.979 217.914 139.979H211.325C211.253 139.979 211.183 140.007 211.131 140.058C211.08 140.109 211.051 140.179 211.051 140.251V141.625H206.933V140.251C206.933 140.179 206.904 140.109 206.852 140.058C206.801 140.007 206.731 139.979 206.658 139.979H200.07C199.997 139.979 199.927 140.007 199.876 140.058C199.824 140.109 199.795 140.179 199.795 140.251V141.625H195.677V140.251C195.677 140.179 195.648 140.109 195.597 140.058C195.545 140.007 195.475 139.979 195.402 139.979H188.815C188.742 139.979 188.672 140.007 188.621 140.058C188.569 140.109 188.541 140.179 188.541 140.251V141.625H184.421V140.251C184.421 140.179 184.392 140.109 184.341 140.058C184.289 140.007 184.219 139.979 184.147 139.979H132.535C132.462 139.979 132.392 140.007 132.341 140.058C132.289 140.109 132.26 140.179 132.26 140.251V141.625H128.143V140.251C128.143 140.179 128.114 140.109 128.062 140.058C128.011 140.007 127.941 139.979 127.868 139.979H121.279C121.206 139.979 121.137 140.007 121.085 140.058C121.034 140.109 121.005 140.179 121.005 140.251V141.625H116.887V140.251C116.887 140.179 116.858 140.109 116.806 140.058C116.755 140.007 116.685 139.979 116.612 139.979H110.024C109.951 139.979 109.881 140.007 109.83 140.058C109.778 140.109 109.749 140.179 109.749 140.251V141.625H105.631V140.251C105.631 140.179 105.602 140.109 105.551 140.058C105.499 140.007 105.429 139.979 105.356 139.979H98.768C98.6952 139.979 98.6253 140.007 98.5738 140.058C98.5223 140.109 98.4934 140.179 98.4934 140.251V141.625H94.3762V140.251C94.3762 140.179 94.3473 140.109 94.2958 140.058C94.2443 140.007 94.1745 139.979 94.1016 139.979H87.5122C87.4394 139.979 87.3695 140.007 87.318 140.058C87.2665 140.109 87.2376 140.179 87.2376 140.251V141.625H83.1198V140.251C83.1198 140.179 83.0909 140.109 83.0394 140.058C82.9879 140.007 82.918 139.979 82.8452 139.979H76.2565C76.1836 139.979 76.1138 140.007 76.0623 140.058C76.0108 140.109 75.9818 140.179 75.9818 140.251V141.625H71.864V140.251C71.864 140.179 71.8351 140.109 71.7836 140.058C71.7321 140.007 71.6623 139.979 71.5894 139.979H64.9994C64.9266 139.979 64.8567 140.007 64.8052 140.058C64.7537 140.109 64.7248 140.179 64.7248 140.251V141.625H52.0978C50.3503 141.625 48.6745 142.314 47.4388 143.54C46.2032 144.765 45.509 146.428 45.509 148.162V151.118C45.509 152.851 46.2032 154.514 47.4388 155.74C48.6745 156.966 50.3503 157.655 52.0978 157.655H271.173C272.92 157.655 274.596 156.966 275.832 155.74C277.067 154.514 277.762 152.852 277.762 151.118V148.162C277.762 146.429 277.067 144.766 275.832 143.54C274.596 142.314 272.92 141.625 271.173 141.625V141.625Z" fill="#3F3D56"/>
<path d="M199.677 45.9319H119.958V129.074H199.677V45.9319Z" fill="#E6E6E6"/>
<path d="M333 157.377H0V158H333V157.377Z" fill="#E6E6E6"/>
<path d="M300.66 135.622C305.171 140.425 305.405 147.486 305.405 147.486C305.405 147.486 298.323 146.758 293.811 141.954C289.299 137.151 289.065 130.09 289.065 130.09C289.065 130.09 296.148 130.818 300.66 135.622Z" fill="#097E4D"/>
<path d="M314.864 143.12C310.022 147.596 302.906 147.828 302.906 147.828C302.906 147.828 303.64 140.801 308.481 136.325C313.323 131.848 320.439 131.617 320.439 131.617C320.439 131.617 319.705 138.643 314.864 143.12Z" fill="#097E4D"/>
<path d="M313.66 157.377H295.853C295.511 157.377 295.176 157.282 294.886 157.102C294.597 156.922 294.364 156.665 294.215 156.36L290.337 148.453C290.202 148.178 290.14 147.872 290.156 147.566C290.172 147.26 290.267 146.963 290.43 146.704C290.594 146.444 290.822 146.23 291.092 146.081C291.363 145.933 291.667 145.855 291.975 145.855H317.538C317.847 145.855 318.151 145.933 318.421 146.081C318.691 146.23 318.919 146.444 319.083 146.704C319.247 146.963 319.341 147.26 319.357 147.566C319.374 147.872 319.311 148.178 319.176 148.453L315.299 156.361C315.149 156.666 314.917 156.923 314.627 157.102C314.337 157.282 314.002 157.377 313.661 157.377L313.66 157.377Z" fill="#E5E5E5"/>
<path d="M19.1317 135.622C23.6437 140.425 23.8769 147.486 23.8769 147.486C23.8769 147.486 16.7948 146.758 12.2828 141.954C7.77079 137.151 7.5376 130.09 7.5376 130.09C7.5376 130.09 14.6197 130.818 19.1317 135.622Z" fill="#E5E5E5"/>
<path d="M29.3078 157.377H11.5C11.1583 157.377 10.8235 157.282 10.5338 157.102C10.2441 156.922 10.0113 156.665 9.86198 156.36L5.98493 148.453C5.84954 148.178 5.78704 147.872 5.80331 147.566C5.81957 147.26 5.91408 146.963 6.07792 146.704C6.24176 146.444 6.46954 146.23 6.73983 146.081C7.01013 145.933 7.31403 145.855 7.62294 145.855H33.1852C33.4941 145.855 33.798 145.933 34.0683 146.081C34.3386 146.23 34.5663 146.444 34.7302 146.704C34.894 146.963 34.9885 147.26 35.0048 147.566C35.0211 147.872 34.9586 148.178 34.8232 148.453L30.9461 156.361C30.7968 156.666 30.564 156.923 30.2743 157.102C29.9846 157.282 29.6498 157.377 29.3081 157.377L29.3078 157.377Z" fill="#E5E5E5"/>
<path d="M169.436 69.4677C175.288 69.4677 180.031 64.7615 180.031 58.956C180.031 53.1506 175.288 48.4443 169.436 48.4443C163.585 48.4443 158.842 53.1506 158.842 58.956C158.842 64.7615 163.585 69.4677 169.436 69.4677Z" fill="#A0616A"/>
<path d="M145.059 129.245L151.901 86.5103C152.265 84.2382 153.112 82.069 154.387 80.147C155.661 78.2251 157.334 76.5945 159.293 75.3636C161.252 74.1328 163.453 73.33 165.749 73.0087C168.045 72.6873 170.383 72.8548 172.609 73.5C176.501 74.6167 179.833 77.1327 181.955 80.5565C184.077 83.9803 184.836 88.066 184.084 92.0154L176.928 130.179L145.059 129.245Z" fill="#FF9900"/>
<path d="M172.362 136.891C172.891 136.544 173.337 136.087 173.669 135.551C174 135.014 174.209 134.412 174.281 133.787C174.353 133.162 174.286 132.529 174.084 131.933C173.883 131.336 173.552 130.79 173.115 130.334L180.188 116.746L172.223 117.589L166.727 130.364C166.007 131.144 165.599 132.158 165.581 133.216C165.563 134.273 165.936 135.301 166.63 136.104C167.323 136.908 168.289 137.431 169.345 137.576C170.401 137.721 171.474 137.478 172.361 136.891L172.362 136.891Z" fill="#A0616A"/>
<path d="M173.876 127.938C173.485 127.883 173.12 127.711 172.83 127.445L170.123 124.964C169.831 124.695 169.629 124.343 169.545 123.956C169.461 123.569 169.498 123.166 169.653 122.801L175.061 110.082L174.294 84.9514C174.518 83.3211 175.386 81.8458 176.706 80.8502C178.027 79.8546 179.692 79.4202 181.335 79.6427C182.978 79.8651 184.465 80.726 185.468 82.0361C186.472 83.3463 186.91 84.9982 186.686 86.6286L187.997 102.427C188.396 107.221 187.026 111.996 184.142 115.864L175.708 127.176C175.546 127.394 175.339 127.575 175.102 127.708C174.864 127.841 174.601 127.923 174.33 127.948C174.179 127.963 174.026 127.959 173.876 127.938Z" fill="#FF9900"/>
<path d="M108.424 53.2289C108.539 53.8476 108.79 54.4336 109.159 54.9457C109.527 55.4577 110.004 55.8835 110.556 56.1929C111.108 56.5022 111.722 56.6877 112.354 56.7363C112.987 56.7849 113.622 56.6953 114.216 56.4739L124.071 68.234L126.393 60.6279L116.679 50.6263C116.236 49.6647 115.453 48.8973 114.479 48.469C113.504 48.0406 112.406 47.981 111.39 48.3012C110.374 48.6214 109.512 49.2994 108.966 50.2073C108.419 51.1151 108.227 52.1899 108.424 53.2289H108.424Z" fill="#A0616A"/>
<path d="M116.144 58.1036C116.347 57.7676 116.649 57.501 117.009 57.3395L120.367 55.8345C120.731 55.6724 121.137 55.6251 121.529 55.699C121.921 55.7729 122.28 55.9645 122.559 56.2477L132.255 66.1478L155.879 75.2452C156.586 75.6611 157.203 76.211 157.695 76.8636C158.188 77.5161 158.545 78.2586 158.748 79.0484C158.951 79.8382 158.995 80.66 158.878 81.4668C158.761 82.2735 158.485 83.0494 158.065 83.7502C157.645 84.4509 157.091 85.0628 156.433 85.5508C155.774 86.0387 155.026 86.3933 154.23 86.5941C153.434 86.7949 152.605 86.8382 151.792 86.7213C150.979 86.6044 150.197 86.3297 149.491 85.9129L134.317 80.9518C129.712 79.4467 125.814 76.3331 123.349 72.1901L116.138 60.0738C115.999 59.8408 115.912 59.5815 115.881 59.3127C115.85 59.0439 115.876 58.7717 115.958 58.5137C116.004 58.3703 116.067 58.2328 116.145 58.1039L116.144 58.1036Z" fill="#FF9900"/>
<path opacity="0.1" d="M178.03 95.4055L177.599 109.101L169.652 122.802L176.288 107.535L178.03 95.4055Z" fill="black"/>
<path d="M162.261 53.6874C163.354 54.9706 165.203 55.3324 166.909 55.481C170.374 55.7824 175.412 55.2941 178.798 54.5178C179.04 56.8418 178.381 59.3472 179.76 61.2589C180.407 58.9446 180.783 56.5641 180.881 54.1644C180.923 53.1368 180.906 52.0706 180.485 51.1258C180.063 50.1811 179.144 49.3792 178.086 49.3708C178.872 48.7789 179.793 48.3881 180.768 48.233L177.416 46.5618L178.277 45.6849L172.208 45.3165L173.966 44.2086C171.32 43.8482 168.644 43.7647 165.981 43.9594C164.745 44.0497 163.451 44.2226 162.45 44.9335C161.448 45.6444 160.869 47.0572 161.491 48.101C160.712 48.2278 159.979 48.5499 159.361 49.0365C158.742 49.5232 158.26 50.1584 157.958 50.882C157.511 52.0055 157.552 53.2536 157.69 54.4509C157.919 56.3658 158.367 58.2484 159.027 60.0622" fill="#2F2E41"/>
<path d="M207.554 27.3541L111.013 49.4676C110.539 49.5756 110.041 49.4926 109.628 49.2368C109.216 48.9811 108.922 48.5734 108.812 48.1033L103.283 24.3434C103.175 23.873 103.258 23.379 103.516 22.9697C103.774 22.5604 104.185 22.2693 104.658 22.1602L201.2 0.0467187C201.674 -0.0612868 202.172 0.0216887 202.584 0.277441C202.997 0.533194 203.29 0.940839 203.4 1.41096L208.929 25.1709C209.038 25.6413 208.954 26.1353 208.696 26.5446C208.438 26.9538 208.028 27.245 207.554 27.3541Z" fill="white"/>
<path d="M207.554 27.3541L111.013 49.4676C110.539 49.5756 110.041 49.4926 109.628 49.2368C109.216 48.9811 108.922 48.5734 108.812 48.1033L103.283 24.3434C103.175 23.873 103.258 23.379 103.516 22.9697C103.774 22.5604 104.185 22.2693 104.658 22.1602L201.2 0.0467187C201.674 -0.0612868 202.172 0.0216887 202.584 0.277441C202.997 0.533194 203.29 0.940839 203.4 1.41096L208.929 25.1709C209.038 25.6413 208.954 26.1353 208.696 26.5446C208.438 26.9538 208.028 27.245 207.554 27.3541ZM104.824 22.8698C104.539 22.9353 104.293 23.11 104.138 23.3556C103.983 23.6012 103.933 23.8977 103.998 24.1799L109.527 47.9398C109.593 48.222 109.769 48.4667 110.017 48.6202C110.264 48.7737 110.563 48.8234 110.848 48.7585L207.389 26.645C207.673 26.5796 207.92 26.4049 208.075 26.1593C208.229 25.9137 208.279 25.6172 208.214 25.3349L202.685 1.57472C202.619 1.29256 202.443 1.04788 202.196 0.894392C201.948 0.740905 201.649 0.691159 201.365 0.756072L104.824 22.8698Z" fill="#E6E6E6"/>
<path d="M138.322 22.7963C138.163 22.8325 138.012 22.8995 137.879 22.9935C137.745 23.0875 137.632 23.2067 137.545 23.3442C137.458 23.4817 137.399 23.6348 137.372 23.7949C137.345 23.9549 137.349 24.1188 137.386 24.277C137.422 24.4353 137.49 24.5848 137.585 24.7171C137.68 24.8495 137.8 24.962 137.938 25.0482C138.077 25.1344 138.231 25.1927 138.393 25.2198C138.554 25.2468 138.719 25.242 138.879 25.2057L138.883 25.2048L196.103 12.0982C196.424 12.024 196.703 11.8263 196.877 11.5485C197.052 11.2707 197.108 10.9354 197.034 10.6163C196.96 10.2973 196.761 10.0205 196.481 9.84677C196.202 9.67303 195.864 9.61653 195.542 9.6897L138.322 22.7963Z" fill="#E6E6E6"/>
<path d="M140.004 30.022C139.844 30.0581 139.694 30.1252 139.56 30.2192C139.427 30.3132 139.313 30.4323 139.226 30.5698C139.139 30.7073 139.081 30.8605 139.053 31.0206C139.026 31.1806 139.031 31.3445 139.067 31.5027C139.104 31.6609 139.171 31.8105 139.266 31.9428C139.361 32.0751 139.481 32.1876 139.62 32.2739C139.758 32.3601 139.913 32.4184 140.074 32.4454C140.235 32.4725 140.401 32.4677 140.56 32.4314L140.564 32.4304L165.186 26.7907C165.508 26.7174 165.787 26.5202 165.963 26.2426C166.138 25.965 166.196 25.6295 166.122 25.3101C166.048 24.9906 165.849 24.7133 165.57 24.5392C165.29 24.365 164.952 24.3081 164.63 24.3812L164.626 24.3822L140.004 30.022Z" fill="#E6E6E6"/>
<path d="M122.68 38.811C126.808 38.811 130.154 35.491 130.154 31.3955C130.154 27.3 126.808 23.98 122.68 23.98C118.552 23.98 115.206 27.3 115.206 31.3955C115.206 35.491 118.552 38.811 122.68 38.811Z" fill="#097E4D"/>
<path d="M122.469 35.6734C122.225 35.7298 121.968 35.7058 121.739 35.605L121.724 35.5987L118.717 34.2441C118.577 34.1813 118.452 34.0918 118.347 33.9808C118.242 33.8697 118.16 33.7393 118.106 33.5969C118.053 33.4545 118.027 33.303 118.033 33.151C118.038 32.999 118.073 32.8494 118.137 32.711C118.2 32.5725 118.29 32.4479 118.403 32.3441C118.515 32.2403 118.646 32.1595 118.79 32.1062C118.933 32.0529 119.086 32.0282 119.239 32.0336C119.393 32.0389 119.543 32.0742 119.683 32.1374L121.631 33.0176L124.365 27.0575C124.493 26.7785 124.728 26.5613 125.017 26.4538C125.307 26.3463 125.627 26.3572 125.908 26.4842L125.892 26.5231L125.909 26.484C126.19 26.6113 126.409 26.8441 126.517 27.1312C126.626 27.4183 126.615 27.7363 126.487 28.0154L123.272 35.0266C123.197 35.1881 123.086 35.3305 122.947 35.4425C122.808 35.5546 122.645 35.6334 122.471 35.6729L122.469 35.6734Z" fill="white"/>
</svg>
