<svg width="24" height="24" fill="none" xmlns="http://www.w3.org/2000/svg"><path d="m7.99 7.294-4.125-.988c-.477-.112-.81-.478-.81-.884 0-.51.505-.922 1.127-.922h2.533c.466 0 .924.116 1.306.328a.698.698 0 0 0 .745-.062l1.329-1.063c.271-.216.233-.575-.069-.765-.936-.6-2.104-.935-3.304-.938V.5c0-.275-.275-.5-.61-.5H4.888c-.336 0-.611.225-.611.5V2h-.096C1.75 2-.206 3.71.02 5.737c.16 1.441 1.505 2.613 3.2 3.02l3.916.937c.477.115.81.478.81.884 0 .51-.505.922-1.127.922H4.285a2.71 2.71 0 0 1-1.306-.328.697.697 0 0 0-.745.062L.905 12.297c-.27.215-.233.575.069.765.936.6 2.105.935 3.304.938v1.5c0 .275.275.5.611.5h1.222c.336 0 .611-.225.611-.5v-1.506c1.78-.028 3.45-.894 4.037-2.272.822-1.925-.557-3.9-2.769-4.428Z" fill="#F90"/></svg>