<svg width="18" height="16" fill="none" xmlns="http://www.w3.org/2000/svg"><g clip-path="url(#a)"><path d="M8.762 4.633 3 9.378V14.5a.5.5 0 0 0 .5.5l3.502-.009a.5.5 0 0 0 .497-.5V11.5A.5.5 0 0 1 8 11h2a.5.5 0 0 1 .5.5v2.989a.5.5 0 0 0 .5.501l3.5.01a.5.5 0 0 0 .5-.5V9.375L9.24 4.633a.381.381 0 0 0-.477 0Zm9.1 3.225L15.25 5.705V1.377a.375.375 0 0 0-.375-.375h-1.75a.375.375 0 0 0-.375.375v2.269L9.952 1.344a1.5 1.5 0 0 0-1.906 0L.136 7.858a.375.375 0 0 0-.05.529l.796.968a.375.375 0 0 0 .529.051l7.35-6.054a.381.381 0 0 1 .479 0l7.35 6.054a.374.374 0 0 0 .529-.05l.797-.968a.376.376 0 0 0-.054-.53Z" fill="#F90"/></g><defs><clipPath id="a"><path fill="#fff" d="M0 0h18v16H0z"/></clipPath></defs></svg>