<svg width="197" height="67" viewBox="0 0 197 67" fill="none" xmlns="http://www.w3.org/2000/svg">
<path d="M1.62 15.256C1.62 14.728 1.728 14.332 1.944 14.068C4.224 12.772 6.744 12.124 9.504 12.124C12.024 12.124 14.22 12.46 16.092 13.132C17.988 13.804 19.5 14.764 20.628 16.012C21.78 17.26 22.632 18.7 23.184 20.332C23.736 21.94 24.012 23.752 24.012 25.768C24.012 29.752 22.908 32.74 20.7 34.732C18.492 36.724 15.012 37.72 10.26 37.72C7.452 37.72 4.764 37.216 2.196 36.208C1.956 35.968 1.836 35.14 1.836 33.724C1.836 32.932 1.872 32.416 1.944 32.176C2.016 31.816 2.52 31.636 3.456 31.636C3.72 31.636 4.02 31.66 4.356 31.708C4.116 30.028 3.996 27.796 3.996 25.012C3.996 22.54 4.14 20.26 4.428 18.172C4.164 18.244 3.84 18.28 3.456 18.28C2.52 18.28 2.016 18.1 1.944 17.74C1.728 16.828 1.62 16 1.62 15.256ZM9.504 32.572C10.2 32.812 10.956 32.932 11.772 32.932C13.764 32.932 15.48 32.248 16.92 30.88C18.384 29.488 19.116 27.7 19.116 25.516C19.116 23.284 18.396 21.28 16.956 19.504C15.516 17.728 13.788 16.84 11.772 16.84C10.932 16.84 10.176 17.008 9.504 17.344C9.72 19.504 9.828 21.964 9.828 24.724C9.828 28.012 9.72 30.628 9.504 32.572ZM26.3866 23.14C26.3866 21.484 26.5066 20.464 26.7466 20.08C28.5466 19.6 30.1066 19.36 31.4266 19.36C32.3626 19.36 33.4426 19.576 34.6666 20.008C34.8346 20.128 35.0146 20.56 35.2066 21.304C35.3986 22.024 35.4946 22.648 35.4946 23.176C35.4946 23.968 35.2786 24.652 34.8466 25.228C34.5826 25.396 34.2346 25.48 33.8026 25.48C33.4666 25.48 33.1426 25.42 32.8306 25.3C32.8306 25.372 32.8186 25.684 32.7946 26.236C32.7946 26.788 32.7946 27.136 32.7946 27.28C32.7946 28.792 33.2026 30.124 34.0186 31.276C34.8586 32.404 35.9026 32.968 37.1506 32.968C38.2306 32.968 39.2146 32.536 40.1026 31.672C41.0146 30.784 41.4706 29.404 41.4706 27.532C41.4706 26.86 41.4346 25.984 41.3626 24.904C41.0746 25.072 40.7026 25.156 40.2466 25.156C39.8146 25.156 39.5506 25.096 39.4546 24.976C39.2146 24.976 39.0946 24.496 39.0946 23.536C39.0946 23.32 39.2146 22.336 39.4546 20.584C41.1826 19.744 43.4146 19.324 46.1506 19.324C48.2146 19.324 49.5346 19.672 50.1106 20.368C50.3266 20.656 50.4346 21.16 50.4346 21.88C50.4346 23.368 50.1106 24.292 49.4626 24.652C48.5986 24.868 47.8786 24.976 47.3026 24.976C46.9666 24.976 46.6786 24.952 46.4386 24.904C46.4386 25.6 46.4626 26.728 46.5106 28.288C46.5586 29.824 46.5826 30.988 46.5826 31.78C46.6786 31.78 47.0746 31.756 47.7706 31.708C48.4666 31.636 48.8746 31.6 48.9946 31.6C49.0906 31.6 49.2346 31.624 49.4266 31.672C49.6186 31.72 49.7626 31.744 49.8586 31.744C49.9546 31.84 50.0026 32.092 50.0026 32.5C50.0026 33.148 49.9066 33.964 49.7146 34.948C49.5226 35.908 49.3426 36.496 49.1746 36.712C48.4546 37.144 47.0866 37.36 45.0706 37.36C43.7746 37.36 42.9106 37.276 42.4786 37.108C42.0466 36.94 41.8306 36.568 41.8306 35.992C41.8306 35.272 41.8906 34.552 42.0106 33.832C39.7546 36.424 37.3186 37.72 34.7026 37.72C30.5746 37.72 28.5106 34.816 28.5106 29.008C28.5106 27.856 28.5826 26.728 28.7266 25.624C28.7026 25.648 28.5946 25.66 28.4026 25.66C28.0426 25.66 27.4786 25.6 26.7106 25.48C26.4946 25.24 26.3866 24.46 26.3866 23.14ZM52.1845 12.772C52.1845 11.692 52.2325 11.02 52.3285 10.756L52.3645 10.72C52.4125 10.672 52.5085 10.612 52.6525 10.54C52.7965 10.468 52.9765 10.396 53.1925 10.324C53.4325 10.252 53.7925 10.192 54.2725 10.144C54.7525 10.096 55.2925 10.072 55.8925 10.072C58.7245 10.072 60.5605 10.432 61.4005 11.152C61.5205 11.392 61.5805 12.7 61.5805 15.076C61.5805 16.084 61.5565 17.044 61.5085 17.956C61.4845 18.844 61.4725 19.312 61.4725 19.36C62.4805 19.072 63.4165 18.928 64.2805 18.928C66.7045 18.928 68.6245 19.876 70.0405 21.772C71.4805 23.644 72.2005 25.792 72.2005 28.216C72.2005 29.608 71.9605 31.012 71.4805 32.428C71.0245 33.844 70.2925 35.068 69.2845 36.1C68.2765 37.132 67.1365 37.648 65.8645 37.648C65.0725 37.648 64.0885 37.348 62.9125 36.748C61.7605 36.124 60.9925 35.752 60.6085 35.632C60.6325 35.656 60.6445 35.764 60.6445 35.956C60.6445 36.34 60.5845 36.76 60.4645 37.216C59.9845 37.312 58.6045 37.36 56.3245 37.36C54.1885 37.36 52.8925 36.988 52.4365 36.244C52.3645 35.956 52.3285 35.284 52.3285 34.228C52.3285 32.332 52.4245 31.312 52.6165 31.168C53.0005 30.928 53.8765 30.808 55.2445 30.808C55.9405 30.808 56.3725 30.856 56.5405 30.952C56.5165 30.04 56.5045 28.696 56.5045 26.92C56.5045 25.816 56.5045 24.64 56.5045 23.392C56.5285 22.12 56.5525 20.716 56.5765 19.18C56.6005 17.644 56.6125 16.396 56.6125 15.436C56.5165 15.46 56.3245 15.472 56.0365 15.472C54.3085 15.472 53.0725 15.256 52.3285 14.824C52.2325 14.56 52.1845 13.876 52.1845 12.772ZM61.1125 31.492C61.1125 31.708 61.4605 31.984 62.1565 32.32C62.8525 32.632 63.4885 32.788 64.0645 32.788C65.0005 32.788 65.8405 32.332 66.5845 31.42C67.3285 30.508 67.7005 29.32 67.7005 27.856C67.7005 26.656 67.4365 25.504 66.9085 24.4C66.4045 23.272 65.5885 22.672 64.4605 22.6C63.5965 22.6 62.8525 22.816 62.2285 23.248C61.6285 23.656 61.3165 24.088 61.2925 24.544C61.2685 24.856 61.2445 25.3 61.2205 25.876C61.2205 26.452 61.2085 27.28 61.1845 28.36C61.1605 29.44 61.1365 30.484 61.1125 31.492ZM74.5574 34.12C74.5574 33.088 74.6414 32.488 74.8094 32.32C75.4334 32.032 76.1294 31.888 76.8974 31.888C76.6334 30.304 76.5014 27.88 76.5014 24.616C76.5014 20.776 76.6214 17.44 76.8614 14.608C76.1654 14.608 75.6254 14.56 75.2414 14.464C75.1934 13.984 75.1694 13.6 75.1694 13.312C75.1694 12.256 75.4214 11.344 75.9254 10.576C76.9574 10.336 77.9294 10.216 78.8414 10.216C79.9934 10.216 80.8934 10.336 81.5414 10.576C81.7814 12.832 81.9014 15.22 81.9014 17.74C81.9014 19.516 81.8174 22.048 81.6494 25.336C81.5054 28.624 81.4214 30.856 81.3974 32.032C81.5174 32.008 81.7094 31.996 81.9734 31.996C82.6934 31.996 83.2814 32.128 83.7374 32.392C83.8334 32.584 83.8814 32.872 83.8814 33.256C83.8814 33.832 83.7854 34.528 83.5934 35.344C83.4014 36.136 83.2094 36.7 83.0174 37.036C82.7054 37.276 81.5174 37.396 79.4534 37.396C78.3254 37.396 77.3054 37.3 76.3934 37.108C75.5054 36.916 74.9774 36.676 74.8094 36.388C74.6414 36.1 74.5574 35.344 74.5574 34.12ZM85.9103 34.372C85.9103 33.148 85.9823 32.452 86.1263 32.284C86.4143 32.116 86.7743 32.008 87.2063 31.96C87.4943 31.912 88.1183 31.888 89.0783 31.888C88.9343 30.376 88.8623 28.732 88.8623 26.956C88.8623 25.012 88.9823 23.776 89.2223 23.248C88.0463 23.248 87.2663 23.2 86.8823 23.104C86.9063 22.456 86.9903 21.772 87.1343 21.052C87.1823 20.74 87.3263 20.128 87.5663 19.216C88.4543 19.048 89.9423 18.964 92.0303 18.964C92.8703 18.964 93.6383 19.012 94.3343 19.108C95.0543 19.204 95.5943 19.324 95.9543 19.468C96.3383 19.588 96.5303 19.708 96.5303 19.828C96.5783 19.828 96.6023 20.26 96.6023 21.124C96.6023 22.492 96.4823 23.356 96.2423 23.716C96.1463 23.86 95.8583 23.932 95.3783 23.932C94.4903 23.932 93.9263 23.872 93.6863 23.752C93.4223 25.432 93.2903 27.616 93.2903 30.304C93.2903 31.408 93.3263 31.984 93.3983 32.032C93.5423 32.008 93.7463 31.996 94.0103 31.996C94.8743 31.996 95.5703 32.128 96.0983 32.392C96.1703 32.488 96.2063 32.704 96.2063 33.04C96.2063 33.64 96.1223 34.36 95.9543 35.2C95.7863 36.04 95.5463 36.616 95.2343 36.928C94.9463 37.216 94.0103 37.36 92.4263 37.36C88.6583 37.36 86.5703 37.012 86.1623 36.316C85.9943 36.004 85.9103 35.356 85.9103 34.372ZM88.7903 11.944C88.7903 11.272 89.1503 10.936 89.8703 10.936C90.4703 10.936 91.1183 11.116 91.8143 11.476C92.3183 10.972 92.9903 10.72 93.8303 10.72C94.3583 10.72 94.8263 10.9 95.2343 11.26C95.6423 11.62 95.8463 12.112 95.8463 12.736C95.8463 13.048 95.7743 13.348 95.6303 13.636C95.5103 13.924 95.3783 14.164 95.2343 14.356C95.0903 14.548 94.8503 14.776 94.5143 15.04C94.1783 15.28 93.9143 15.46 93.7223 15.58C93.5543 15.676 93.2423 15.856 92.7863 16.12C92.3303 16.36 92.0423 16.516 91.9223 16.588C90.9863 15.892 90.2303 15.112 89.6543 14.248C89.0783 13.36 88.7903 12.592 88.7903 11.944ZM98.9927 34.84C98.9927 33.352 99.3167 32.428 99.9647 32.068C100.565 31.852 101.381 31.744 102.413 31.744C102.557 31.744 102.749 31.768 102.989 31.816C102.989 31.12 102.965 30.004 102.917 28.468C102.869 26.908 102.845 25.732 102.845 24.94C102.749 24.94 102.353 24.976 101.657 25.048C100.961 25.096 100.553 25.12 100.433 25.12C100.337 25.12 100.193 25.096 100.001 25.048C99.8087 25 99.6647 24.976 99.5687 24.976C99.4727 24.88 99.4247 24.628 99.4247 24.22C99.4247 23.572 99.5207 22.768 99.7127 21.808C99.9047 20.824 100.085 20.224 100.253 20.008C100.949 19.576 102.221 19.36 104.069 19.36C105.533 19.36 106.481 19.444 106.913 19.612C107.369 19.756 107.597 20.128 107.597 20.728C107.597 21.448 107.537 22.168 107.417 22.888C109.673 20.296 112.109 19 114.725 19C118.853 19 120.917 21.904 120.917 27.712C120.917 28.888 120.845 30.028 120.701 31.132C120.701 31.084 120.809 31.06 121.025 31.06C121.385 31.06 121.949 31.12 122.717 31.24C122.933 31.48 123.041 32.26 123.041 33.58C123.041 35.236 122.921 36.256 122.681 36.64C120.881 37.12 119.321 37.36 118.001 37.36C117.065 37.36 115.985 37.144 114.761 36.712C114.593 36.592 114.413 36.172 114.221 35.452C114.029 34.708 113.933 34.072 113.933 33.544C113.933 32.752 114.149 32.068 114.581 31.492C114.845 31.324 115.193 31.24 115.625 31.24C115.961 31.24 116.285 31.3 116.597 31.42C116.597 31.348 116.597 31.036 116.597 30.484C116.621 29.932 116.633 29.584 116.633 29.44C116.633 27.928 116.213 26.608 115.373 25.48C114.557 24.328 113.525 23.752 112.277 23.752C111.197 23.752 110.201 24.196 109.289 25.084C108.401 25.948 107.957 27.316 107.957 29.188C107.957 29.86 107.993 30.736 108.065 31.816C108.353 31.648 108.725 31.564 109.181 31.564C109.613 31.564 109.877 31.624 109.973 31.744C110.213 31.744 110.333 32.224 110.333 33.184C110.333 33.4 110.213 34.384 109.973 36.136C108.245 36.976 106.049 37.396 103.385 37.396C101.201 37.396 99.8447 37.06 99.3167 36.388C99.1007 36.124 98.9927 35.608 98.9927 34.84ZM133.148 34.264C133.148 33.112 133.22 32.464 133.364 32.32C133.58 32.2 134 32.092 134.624 31.996C135.056 31.924 135.332 31.888 135.452 31.888C135.164 29.488 135.02 27.076 135.02 24.652C135.02 22.324 135.164 20.008 135.452 17.704C135.332 17.704 135.056 17.668 134.624 17.596C134 17.5 133.58 17.392 133.364 17.272C133.22 17.128 133.148 16.48 133.148 15.328C133.148 14.08 133.22 13.372 133.364 13.204C133.34 12.916 133.724 12.688 134.516 12.52C135.332 12.328 136.34 12.232 137.54 12.232C138.812 12.232 140.096 12.34 141.392 12.556C141.536 12.796 141.716 13.408 141.932 14.392C142.148 15.352 142.244 16.084 142.22 16.588C142.22 16.9 142.184 17.104 142.112 17.2C141.584 17.464 141.008 17.596 140.384 17.596C140.12 17.596 139.916 17.584 139.772 17.56C140.06 19.504 140.204 21.616 140.204 23.896C140.204 25.768 140.06 28.48 139.772 32.032C139.916 32.008 140.12 31.996 140.384 31.996C141.008 31.996 141.584 32.128 142.112 32.392C142.184 32.488 142.22 32.692 142.22 33.004C142.22 33.508 142.112 34.252 141.896 35.236C141.704 36.196 141.536 36.796 141.392 37.036C140.024 37.156 138.776 37.216 137.648 37.216C136.4 37.216 135.368 37.144 134.552 37C133.736 36.856 133.34 36.652 133.364 36.388C133.22 36.22 133.148 35.512 133.148 34.264ZM145.188 34.84C145.188 33.352 145.512 32.428 146.16 32.068C146.76 31.852 147.576 31.744 148.608 31.744C148.752 31.744 148.944 31.768 149.184 31.816C149.184 31.12 149.16 30.004 149.112 28.468C149.064 26.908 149.04 25.732 149.04 24.94C148.944 24.94 148.548 24.976 147.852 25.048C147.156 25.096 146.748 25.12 146.628 25.12C146.532 25.12 146.388 25.096 146.196 25.048C146.004 25 145.86 24.976 145.764 24.976C145.668 24.88 145.62 24.628 145.62 24.22C145.62 23.572 145.716 22.768 145.908 21.808C146.1 20.824 146.28 20.224 146.448 20.008C147.144 19.576 148.416 19.36 150.264 19.36C151.728 19.36 152.676 19.444 153.108 19.612C153.564 19.756 153.792 20.128 153.792 20.728C153.792 21.448 153.732 22.168 153.612 22.888C155.868 20.296 158.304 19 160.92 19C165.048 19 167.112 21.904 167.112 27.712C167.112 28.888 167.04 30.028 166.896 31.132C166.896 31.084 167.004 31.06 167.22 31.06C167.58 31.06 168.144 31.12 168.912 31.24C169.128 31.48 169.236 32.26 169.236 33.58C169.236 35.236 169.116 36.256 168.876 36.64C167.076 37.12 165.516 37.36 164.196 37.36C163.26 37.36 162.18 37.144 160.956 36.712C160.788 36.592 160.608 36.172 160.416 35.452C160.224 34.708 160.128 34.072 160.128 33.544C160.128 32.752 160.344 32.068 160.776 31.492C161.04 31.324 161.388 31.24 161.82 31.24C162.156 31.24 162.48 31.3 162.792 31.42C162.792 31.348 162.792 31.036 162.792 30.484C162.816 29.932 162.828 29.584 162.828 29.44C162.828 27.928 162.408 26.608 161.568 25.48C160.752 24.328 159.72 23.752 158.472 23.752C157.392 23.752 156.396 24.196 155.484 25.084C154.596 25.948 154.152 27.316 154.152 29.188C154.152 29.86 154.188 30.736 154.26 31.816C154.548 31.648 154.92 31.564 155.376 31.564C155.808 31.564 156.072 31.624 156.168 31.744C156.408 31.744 156.528 32.224 156.528 33.184C156.528 33.4 156.408 34.384 156.168 36.136C154.44 36.976 152.244 37.396 149.58 37.396C147.396 37.396 146.04 37.06 145.512 36.388C145.296 36.124 145.188 35.608 145.188 34.84ZM171.239 34.84C171.239 33.352 171.563 32.428 172.211 32.068C172.811 31.852 173.627 31.744 174.659 31.744C174.803 31.744 174.995 31.768 175.235 31.816C175.235 31.12 175.211 30.004 175.163 28.468C175.115 26.908 175.091 25.732 175.091 24.94C174.995 24.94 174.599 24.976 173.903 25.048C173.207 25.096 172.799 25.12 172.679 25.12C172.583 25.12 172.439 25.096 172.247 25.048C172.055 25 171.911 24.976 171.815 24.976C171.719 24.88 171.671 24.628 171.671 24.22C171.671 23.572 171.767 22.768 171.959 21.808C172.151 20.824 172.331 20.224 172.499 20.008C173.195 19.576 174.467 19.36 176.315 19.36C177.779 19.36 178.727 19.444 179.159 19.612C179.615 19.756 179.843 20.128 179.843 20.728C179.843 21.448 179.783 22.168 179.663 22.888C181.919 20.296 184.355 19 186.971 19C191.099 19 193.163 21.904 193.163 27.712C193.163 28.888 193.091 30.028 192.947 31.132C192.947 31.084 193.055 31.06 193.271 31.06C193.631 31.06 194.195 31.12 194.963 31.24C195.179 31.48 195.287 32.26 195.287 33.58C195.287 35.236 195.167 36.256 194.927 36.64C193.127 37.12 191.567 37.36 190.247 37.36C189.311 37.36 188.231 37.144 187.007 36.712C186.839 36.592 186.659 36.172 186.467 35.452C186.275 34.708 186.179 34.072 186.179 33.544C186.179 32.752 186.395 32.068 186.827 31.492C187.091 31.324 187.439 31.24 187.871 31.24C188.207 31.24 188.531 31.3 188.843 31.42C188.843 31.348 188.843 31.036 188.843 30.484C188.867 29.932 188.879 29.584 188.879 29.44C188.879 27.928 188.459 26.608 187.619 25.48C186.803 24.328 185.771 23.752 184.523 23.752C183.443 23.752 182.447 24.196 181.535 25.084C180.647 25.948 180.203 27.316 180.203 29.188C180.203 29.86 180.239 30.736 180.311 31.816C180.599 31.648 180.971 31.564 181.427 31.564C181.859 31.564 182.123 31.624 182.219 31.744C182.459 31.744 182.579 32.224 182.579 33.184C182.579 33.4 182.459 34.384 182.219 36.136C180.491 36.976 178.295 37.396 175.631 37.396C173.447 37.396 172.091 37.06 171.563 36.388C171.347 36.124 171.239 35.608 171.239 34.84Z" fill="white"/>
<path d="M111.346 52.894H109.834V57.88H107.458V45.442H111.166C114.454 45.442 116.098 46.66 116.098 49.096C116.098 49.924 115.894 50.608 115.486 51.148C115.078 51.688 114.442 52.126 113.578 52.462L116.836 57.88H114.1L111.346 52.894ZM109.834 51.184H111.31C112.066 51.184 112.636 51.022 113.02 50.698C113.416 50.362 113.614 49.828 113.614 49.096C113.614 48.424 113.41 47.938 113.002 47.638C112.606 47.326 111.976 47.17 111.112 47.17H109.834V51.184ZM125.938 52.894C125.938 53.014 125.92 53.326 125.884 53.83H119.908C119.98 54.754 120.22 55.414 120.628 55.81C121.036 56.206 121.576 56.404 122.248 56.404C122.668 56.404 123.064 56.338 123.436 56.206C123.808 56.062 124.204 55.846 124.624 55.558L125.578 56.872C124.522 57.724 123.346 58.15 122.05 58.15C120.598 58.15 119.476 57.706 118.684 56.818C117.904 55.93 117.514 54.718 117.514 53.182C117.514 52.21 117.682 51.34 118.018 50.572C118.354 49.792 118.84 49.186 119.476 48.754C120.112 48.31 120.868 48.088 121.744 48.088C123.076 48.088 124.108 48.514 124.84 49.366C125.572 50.206 125.938 51.382 125.938 52.894ZM123.652 52.228C123.652 50.56 123.034 49.726 121.798 49.726C121.234 49.726 120.79 49.936 120.466 50.356C120.154 50.764 119.968 51.424 119.908 52.336H123.652V52.228ZM134.867 55.36C134.867 55.732 134.921 56.008 135.029 56.188C135.149 56.356 135.335 56.488 135.587 56.584L135.101 58.114C134.561 58.066 134.117 57.934 133.769 57.718C133.433 57.502 133.175 57.172 132.995 56.728C132.671 57.208 132.263 57.568 131.771 57.808C131.291 58.036 130.751 58.15 130.151 58.15C129.203 58.15 128.453 57.88 127.901 57.34C127.349 56.8 127.073 56.092 127.073 55.216C127.073 54.184 127.445 53.398 128.189 52.858C128.945 52.306 130.019 52.03 131.411 52.03H132.599V51.49C132.599 50.878 132.455 50.452 132.167 50.212C131.891 49.96 131.441 49.834 130.817 49.834C130.121 49.834 129.281 50.002 128.297 50.338L127.757 48.772C128.945 48.316 130.097 48.088 131.213 48.088C133.649 48.088 134.867 49.18 134.867 51.364V55.36ZM130.763 56.476C131.543 56.476 132.155 56.086 132.599 55.306V53.38H131.645C130.157 53.38 129.413 53.932 129.413 55.036C129.413 55.492 129.527 55.846 129.755 56.098C129.983 56.35 130.319 56.476 130.763 56.476ZM139.73 58.15C138.998 58.15 138.422 57.94 138.002 57.52C137.594 57.088 137.39 56.482 137.39 55.702V44.542L139.694 44.29V55.63C139.694 56.074 139.874 56.296 140.234 56.296C140.414 56.296 140.594 56.266 140.774 56.206L141.26 57.826C140.78 58.042 140.27 58.15 139.73 58.15ZM154.578 45.442L154.326 47.206H149.736V50.68H153.732V52.444H149.736V56.098H154.65V57.88H147.36V45.442H154.578ZM159.751 48.088C161.035 48.088 162.163 48.466 163.135 49.222L162.235 50.572C161.419 50.056 160.621 49.798 159.841 49.798C159.385 49.798 159.031 49.888 158.779 50.068C158.527 50.236 158.401 50.464 158.401 50.752C158.401 50.968 158.455 51.148 158.563 51.292C158.671 51.436 158.863 51.574 159.139 51.706C159.427 51.826 159.847 51.964 160.399 52.12C161.431 52.396 162.193 52.762 162.685 53.218C163.189 53.674 163.441 54.31 163.441 55.126C163.441 56.074 163.057 56.818 162.289 57.358C161.521 57.886 160.567 58.15 159.427 58.15C158.647 58.15 157.933 58.03 157.285 57.79C156.649 57.55 156.097 57.22 155.629 56.8L156.781 55.504C157.609 56.128 158.473 56.44 159.373 56.44C159.889 56.44 160.297 56.338 160.597 56.134C160.909 55.93 161.065 55.648 161.065 55.288C161.065 55.012 161.005 54.796 160.885 54.64C160.777 54.472 160.573 54.328 160.273 54.208C159.985 54.076 159.529 53.92 158.905 53.74C157.933 53.476 157.219 53.11 156.763 52.642C156.307 52.162 156.079 51.568 156.079 50.86C156.079 50.332 156.229 49.858 156.529 49.438C156.841 49.018 157.273 48.688 157.825 48.448C158.389 48.208 159.031 48.088 159.751 48.088ZM170.76 57.43C170.424 57.67 170.046 57.85 169.626 57.97C169.218 58.09 168.798 58.15 168.366 58.15C167.43 58.138 166.716 57.874 166.224 57.358C165.744 56.83 165.504 56.056 165.504 55.036V50.014H164.01V48.358H165.504V46.252L167.808 45.982V48.358H170.022L169.788 50.014H167.808V54.982C167.808 55.45 167.886 55.786 168.042 55.99C168.21 56.194 168.468 56.296 168.816 56.296C169.164 56.296 169.542 56.182 169.95 55.954L170.76 57.43ZM178.918 55.36C178.918 55.732 178.972 56.008 179.08 56.188C179.2 56.356 179.386 56.488 179.638 56.584L179.152 58.114C178.612 58.066 178.168 57.934 177.82 57.718C177.484 57.502 177.226 57.172 177.046 56.728C176.722 57.208 176.314 57.568 175.822 57.808C175.342 58.036 174.802 58.15 174.202 58.15C173.254 58.15 172.504 57.88 171.952 57.34C171.4 56.8 171.124 56.092 171.124 55.216C171.124 54.184 171.496 53.398 172.24 52.858C172.996 52.306 174.07 52.03 175.462 52.03H176.65V51.49C176.65 50.878 176.506 50.452 176.218 50.212C175.942 49.96 175.492 49.834 174.868 49.834C174.172 49.834 173.332 50.002 172.348 50.338L171.808 48.772C172.996 48.316 174.148 48.088 175.264 48.088C177.7 48.088 178.918 49.18 178.918 51.364V55.36ZM174.814 56.476C175.594 56.476 176.206 56.086 176.65 55.306V53.38H175.696C174.208 53.38 173.464 53.932 173.464 55.036C173.464 55.492 173.578 55.846 173.806 56.098C174.034 56.35 174.37 56.476 174.814 56.476ZM187.16 57.43C186.824 57.67 186.446 57.85 186.026 57.97C185.618 58.09 185.198 58.15 184.766 58.15C183.83 58.138 183.116 57.874 182.624 57.358C182.144 56.83 181.904 56.056 181.904 55.036V50.014H180.41V48.358H181.904V46.252L184.208 45.982V48.358H186.422L186.188 50.014H184.208V54.982C184.208 55.45 184.286 55.786 184.442 55.99C184.61 56.194 184.868 56.296 185.216 56.296C185.564 56.296 185.942 56.182 186.35 55.954L187.16 57.43ZM195.969 52.894C195.969 53.014 195.951 53.326 195.915 53.83H189.939C190.011 54.754 190.251 55.414 190.659 55.81C191.067 56.206 191.607 56.404 192.279 56.404C192.699 56.404 193.095 56.338 193.467 56.206C193.839 56.062 194.235 55.846 194.655 55.558L195.609 56.872C194.553 57.724 193.377 58.15 192.081 58.15C190.629 58.15 189.507 57.706 188.715 56.818C187.935 55.93 187.545 54.718 187.545 53.182C187.545 52.21 187.713 51.34 188.049 50.572C188.385 49.792 188.871 49.186 189.507 48.754C190.143 48.31 190.899 48.088 191.775 48.088C193.107 48.088 194.139 48.514 194.871 49.366C195.603 50.206 195.969 51.382 195.969 52.894ZM193.683 52.228C193.683 50.56 193.065 49.726 191.829 49.726C191.265 49.726 190.821 49.936 190.497 50.356C190.185 50.764 189.999 51.424 189.939 52.336H193.683V52.228Z" fill="white"/>
</svg>
