<svg width="333" height="158" viewBox="0 0 224 158" fill="none" xmlns="http://www.w3.org/2000/svg">
<g clip-path="url(#clip0_42_357)">
<path d="M208.956 157.91C208.913 157.84 207.891 156.145 207.537 152.626C207.212 149.398 207.421 143.956 210.262 136.365C215.645 121.984 209.022 110.381 208.954 110.265L209.281 110.077C209.298 110.106 211.007 113.064 212.017 117.775C213.351 124.021 212.865 130.514 210.616 136.495C205.243 150.852 209.238 157.648 209.279 157.715L208.956 157.91Z" fill="#F1F1F1"/>
<path d="M206.852 109.421C208.207 109.421 209.306 108.329 209.306 106.982C209.306 105.636 208.207 104.544 206.852 104.544C205.496 104.544 204.397 105.636 204.397 106.982C204.397 108.329 205.496 109.421 206.852 109.421Z" fill="#F1F1F1"/>
<path d="M214.594 118.424C215.95 118.424 217.049 117.332 217.049 115.985C217.049 114.639 215.95 113.547 214.594 113.547C213.238 113.547 212.139 114.639 212.139 115.985C212.139 117.332 213.238 118.424 214.594 118.424Z" fill="#F1F1F1"/>
<path d="M209.306 124.426C210.662 124.426 211.761 123.334 211.761 121.987C211.761 120.641 210.662 119.549 209.306 119.549C207.951 119.549 206.852 120.641 206.852 121.987C206.852 123.334 207.951 124.426 209.306 124.426Z" fill="#F1F1F1"/>
<path d="M215.727 129.49C217.083 129.49 218.182 128.398 218.182 127.052C218.182 125.705 217.083 124.613 215.727 124.613C214.371 124.613 213.272 125.705 213.272 127.052C213.272 128.398 214.371 129.49 215.727 129.49Z" fill="#F1F1F1"/>
<path d="M207.418 137.368C208.774 137.368 209.873 136.276 209.873 134.93C209.873 133.583 208.774 132.491 207.418 132.491C206.062 132.491 204.963 133.583 204.963 134.93C204.963 136.276 206.062 137.368 207.418 137.368Z" fill="#F1F1F1"/>
<path d="M210.439 158C210.439 158 207.985 151.998 215.349 147.496L210.439 158Z" fill="#F1F1F1"/>
<path d="M207.42 157.891C207.42 157.891 206.303 151.508 197.656 151.563L207.42 157.891Z" fill="#F1F1F1"/>
<path d="M135 80.2859C135.372 80.3602 135.756 80.3526 136.125 80.2635C136.494 80.1744 136.839 80.0061 137.135 79.7703C137.431 79.5346 137.672 79.2372 137.84 78.8991C138.008 78.5609 138.1 78.1903 138.108 77.8132L157.731 59.4678L153.316 55.9695L135.382 75.1488C134.744 75.1769 134.138 75.4368 133.679 75.8791C133.22 76.3214 132.941 76.9154 132.894 77.5486C132.847 78.1818 133.035 78.8102 133.423 79.3147C133.811 79.8192 134.372 80.1647 135 80.2859Z" fill="#FFB7B7"/>
<path d="M154.95 62.4331L151.133 57.9892C151.024 57.8628 150.944 57.7145 150.898 57.5547C150.853 57.3948 150.842 57.227 150.868 57.0627C150.893 56.8984 150.954 56.7415 151.046 56.6026C151.138 56.4638 151.259 56.3462 151.401 56.258L156.371 53.1677C157.025 52.6194 157.872 52.3513 158.725 52.422C159.578 52.4928 160.368 52.8967 160.922 53.5453C161.476 54.1938 161.748 55.034 161.679 55.8816C161.61 56.7292 161.206 57.5152 160.554 58.0671L156.714 62.4427C156.604 62.5679 156.468 62.6682 156.315 62.7365C156.163 62.8049 155.997 62.8398 155.83 62.8389C155.662 62.838 155.497 62.8013 155.345 62.7313C155.194 62.6612 155.059 62.5595 154.95 62.4331Z" fill="#CBCBCB"/>
<path d="M144.684 152.958L139.887 152.958L137.604 134.576L144.685 134.577L144.684 152.958Z" fill="#FFB7B7"/>
<path d="M145.908 157.577L130.438 157.577V157.382C130.438 155.796 131.073 154.275 132.202 153.153C133.331 152.032 134.862 151.402 136.459 151.402H136.46L145.908 151.402L145.908 157.577Z" fill="#2F2E41"/>
<path d="M183.036 152.958L178.238 152.958L175.955 134.576L183.037 134.577L183.036 152.958Z" fill="#FFB7B7"/>
<path d="M184.259 157.577L168.789 157.577V157.382C168.789 155.796 169.424 154.275 170.553 153.153C171.682 152.032 173.214 151.402 174.811 151.402H174.811L184.26 151.402L184.259 157.577Z" fill="#2F2E41"/>
<path d="M170.13 72.1767L174.967 54.4291L168.693 50.9263H159.935L156.529 54.5459C156.529 54.5459 150.839 58.4786 152.216 62.8359L154.438 72.7605L151.04 88.5232L133.917 112.109L129.864 135.276L145.819 139.431L163.072 105.687L171.437 143.05L187 142.273L181.637 96.9699C181.637 96.9699 180.108 83.169 172.096 74.5519L170.13 72.1767Z" fill="#2F2E41"/>
<path d="M180.118 87.8798C180.388 87.6144 180.595 87.2934 180.727 86.9396C180.858 86.5857 180.91 86.2076 180.878 85.8318C180.846 85.456 180.732 85.0916 180.543 84.7644C180.354 84.4373 180.096 84.1552 179.785 83.9381L176.033 58.7935L170.647 60.4826L176.038 84.6996C175.706 85.2418 175.585 85.8863 175.699 86.5111C175.812 87.1359 176.153 87.6975 176.656 88.0895C177.159 88.4815 177.789 88.6767 178.427 88.638C179.065 88.5994 179.667 88.3296 180.118 87.8798V87.8798Z" fill="#FFB7B7"/>
<path d="M176.96 62.7396L171.118 63.4087C170.951 63.4277 170.783 63.411 170.624 63.3595C170.465 63.3081 170.319 63.2232 170.196 63.1106C170.072 62.998 169.975 62.8604 169.911 62.7071C169.846 62.5539 169.815 62.3885 169.82 62.2224L170.01 56.4013C169.916 55.5559 170.164 54.7083 170.699 54.0443C171.234 53.3803 172.013 52.9541 172.863 52.8592C173.714 52.7643 174.568 53.0083 175.238 53.5379C175.908 54.0674 176.339 54.8393 176.437 55.6841L177.952 61.2911C177.995 61.4517 178.003 61.6196 177.975 61.7835C177.947 61.9474 177.884 62.1034 177.79 62.2408C177.696 62.3783 177.573 62.494 177.43 62.5801C177.287 62.6661 177.127 62.7205 176.96 62.7396V62.7396Z" fill="#CBCBCB"/>
<path d="M154.521 45.8792V38.4014C154.521 35.7438 155.584 33.1951 157.475 31.316C159.367 29.4368 161.933 28.3811 164.609 28.3811C167.284 28.3811 169.85 29.4368 171.742 31.316C173.634 33.1951 174.697 35.7438 174.697 38.4014V45.8792C174.696 46.236 174.554 46.5782 174.3 46.8305C174.045 47.0828 173.701 47.2248 173.342 47.2252H155.876C155.517 47.2248 155.172 47.0828 154.918 46.8305C154.664 46.5782 154.521 46.236 154.521 45.8792Z" fill="#2F2E41"/>
<path d="M162.536 47.0512C166.621 47.0512 169.932 43.762 169.932 39.7047C169.932 35.6473 166.621 32.3582 162.536 32.3582C158.451 32.3582 155.14 35.6473 155.14 39.7047C155.14 43.762 158.451 47.0512 162.536 47.0512Z" fill="#FFB7B7"/>
<path d="M152.134 38.9997C152.137 36.8982 152.978 34.8835 154.474 33.3975C155.97 31.9115 157.999 31.0756 160.114 31.0732H161.62C163.736 31.0756 165.764 31.9115 167.26 33.3975C168.756 34.8835 169.598 36.8982 169.6 38.9997V39.1493H166.418L165.333 36.1307L165.116 39.1493H163.471L162.924 37.6263L162.814 39.1493H152.134V38.9997Z" fill="#2F2E41"/>
<path d="M161.808 48.0661C161.659 47.8651 161.569 47.6264 161.551 47.3773C161.532 47.1282 161.584 46.8789 161.702 46.6581C163.297 43.6436 165.532 38.0735 162.566 34.6384L162.353 34.3916H170.962V47.2295L163.141 48.6C163.062 48.6139 162.982 48.621 162.902 48.6211C162.688 48.621 162.478 48.5707 162.288 48.4743C162.097 48.3778 161.933 48.2379 161.808 48.0661Z" fill="#2F2E41"/>
<path d="M223.709 157.948H113.021C112.944 157.948 112.87 157.918 112.815 157.864C112.761 157.81 112.73 157.736 112.73 157.66C112.73 157.583 112.761 157.51 112.815 157.456C112.87 157.402 112.944 157.371 113.021 157.371H223.709C223.786 157.371 223.86 157.402 223.915 157.456C223.969 157.51 224 157.583 224 157.66C224 157.736 223.969 157.81 223.915 157.864C223.86 157.918 223.786 157.948 223.709 157.948Z" fill="#DEDEDE"/>
<path d="M125.295 70.1591L131.46 68.741C131.757 68.6726 132.069 68.7067 132.345 68.8378C132.62 68.9689 132.842 69.1891 132.975 69.4623L139.289 82.4689C139.358 82.6109 139.394 82.7659 139.396 82.9233C139.398 83.0806 139.365 83.2365 139.3 83.38C139.235 83.5235 139.14 83.6512 139.02 83.7543C138.9 83.8574 138.76 83.9333 138.607 83.9767L132.342 85.7447C132.007 85.8394 131.648 85.8096 131.333 85.6609C131.018 85.5122 130.768 85.2547 130.631 84.9365L126.601 75.6406L126.479 75.7081L125.712 73.9469L125.839 73.8822C125.707 73.0988 123.697 70.527 125.295 70.1591Z" fill="#3F3D56"/>
<path d="M130.717 69.2235C131.307 69.0594 132.178 68.8341 132.487 69.5623L138.65 82.4856C138.685 82.56 138.704 82.6411 138.705 82.7234C138.706 82.8057 138.689 82.8872 138.655 82.9624C138.622 83.0375 138.572 83.1047 138.51 83.1592C138.448 83.2137 138.375 83.2543 138.296 83.2783L132.075 85.1426C131.033 86.3228 125.756 71.3997 125.342 71.2443C125.305 71.157 125.287 71.0626 125.29 70.9678C125.294 70.8729 125.318 70.7799 125.361 70.6953C125.404 70.6106 125.465 70.5364 125.54 70.4777C125.615 70.419 125.703 70.3774 125.796 70.3556C126.054 70.3564 126.661 70.0013 126.82 70.3527C126.815 70.7736 130.192 69.6979 130.362 69.7433C130.476 69.717 130.576 69.6489 130.642 69.5525C130.708 69.4561 130.735 69.3386 130.717 69.2235Z" fill="#FF9900"/>
<path d="M0.581055 0.577148H128.112V42.1619H123.281V53.0381L112.332 42.1619H0.581055V0.577148Z" fill="white"/>
<path d="M123.862 54.4316L112.091 42.739H0V0H128.693V42.739H123.862V54.4316ZM1.16209 41.5847H112.572L122.7 51.6448V41.5847H127.531V1.15427H1.16209V41.5847Z" fill="#E5E5E5"/>
<path d="M70.9207 14.6594H12.929V16.4075H70.9207V14.6594Z" fill="#FF9900"/>
<path d="M113.918 20.7065H12.843V22.4546H113.918V20.7065Z" fill="#FF9900"/>
<path d="M113.918 26.7537H12.9419V28.5017H113.918V26.7537Z" fill="#FF9900"/>
</g>
<defs>
<clipPath id="clip0_42_357">
<rect width="224" height="158" fill="white"/>
</clipPath>
</defs>
</svg>
