<svg width="333" height="158" viewBox="0 0 281 158" fill="none" xmlns="http://www.w3.org/2000/svg">
<g clip-path="url(#clip0_42_309)">
<path d="M258.911 157.691C263.022 157.691 266.354 157.136 266.354 156.453C266.354 155.769 263.022 155.215 258.911 155.215C254.8 155.215 251.467 155.769 251.467 156.453C251.467 157.136 254.8 157.691 258.911 157.691Z" fill="#F2F2F2"/>
<path d="M267.595 38.2234H266.975V51.2224H267.595V38.2234Z" fill="#F2F2F2"/>
<path d="M260.772 29.8667H257.05V158H260.772V29.8667Z" fill="#F2F2F2"/>
<path d="M275.95 39.9256H241.871C241.498 39.9256 241.128 39.8463 240.787 39.6929C240.447 39.5395 240.142 39.3155 239.895 39.0359C239.648 38.7562 239.463 38.4273 239.352 38.0709C239.242 37.7144 239.209 37.3387 239.255 36.9685L243.598 2.30448C243.678 1.66858 243.988 1.08379 244.47 0.659601C244.951 0.23541 245.571 0.000906715 246.214 0H271.608C272.25 0.000906626 272.87 0.23541 273.351 0.659601C273.833 1.08379 274.143 1.66858 274.224 2.30448L278.566 36.9685C278.612 37.3387 278.579 37.7144 278.469 38.0709C278.359 38.4273 278.174 38.7562 277.926 39.0359C277.679 39.3155 277.375 39.5395 277.034 39.6929C276.693 39.8463 276.324 39.9256 275.95 39.9256Z" fill="#F2F2F2"/>
<path d="M267.285 53.3889C268.484 53.3889 269.456 52.4189 269.456 51.2224C269.456 50.0259 268.484 49.0559 267.285 49.0559C266.086 49.0559 265.114 50.0259 265.114 51.2224C265.114 52.4189 266.086 53.3889 267.285 53.3889Z" fill="#F2F2F2"/>
<path d="M38.9431 123.603C37.3762 129.028 32.801 132.825 28.0284 136.051C27.362 136.501 26.6954 136.941 26.0286 137.371C26.0241 137.373 26.0194 137.377 26.0149 137.379C25.9828 137.4 25.9506 137.42 25.9208 137.441C25.7831 137.53 25.6455 137.618 25.509 137.706L25.584 137.739C25.584 137.739 25.6576 137.778 25.577 137.746C25.5531 137.736 25.5279 137.727 25.504 137.717C22.7315 136.601 19.9097 135.403 17.7849 133.312C15.5808 131.141 14.2927 127.737 15.4862 124.885C15.6431 124.512 15.8413 124.157 16.077 123.827C16.1738 123.689 16.2781 123.556 16.3866 123.427C17.045 122.625 17.9055 122.012 18.8796 121.652C19.8537 121.293 20.9063 121.198 21.9292 121.379C22.9521 121.559 23.9083 122.008 24.6996 122.68C25.4908 123.352 26.0885 124.221 26.4312 125.2C26.7818 121.942 24.0899 119.213 21.4993 117.2C18.9076 115.187 15.9627 112.996 15.4616 109.756C15.1818 107.954 15.8099 106.207 16.9541 104.805C16.9896 104.762 17.0249 104.719 17.0614 104.678C18.4543 103.045 20.4133 101.996 22.5472 101.741C26.5213 101.329 30.3815 103.428 33.2685 106.186C37.9153 110.622 40.7244 117.436 38.9431 123.603Z" fill="#F2F2F2"/>
<path d="M31.4732 116.508C32.2359 117.693 32.8215 118.981 33.2115 120.334C33.5412 121.543 33.688 122.795 33.6469 124.047C33.5405 126.624 32.8155 129.138 31.5328 131.378C30.5666 133.076 29.3891 134.647 28.0283 136.051C27.3619 136.501 26.6953 136.941 26.0285 137.371C26.024 137.373 26.0193 137.377 26.0148 137.379C25.9827 137.4 25.9505 137.42 25.9207 137.441C25.783 137.53 25.6454 137.618 25.5089 137.706C25.5089 137.706 25.6575 137.778 25.5769 137.746C25.553 137.736 25.5278 137.727 25.5039 137.717C25.7524 135.684 25.509 133.621 24.794 131.701C24.0791 129.781 22.9134 128.06 21.3947 126.683C19.8723 125.326 18.0502 124.347 16.0769 123.827C16.1737 123.689 16.278 123.556 16.3865 123.427C17.1487 123.64 17.8904 123.92 18.6031 124.264C21.1507 125.484 23.2368 127.491 24.5524 129.987C25.7331 132.254 26.2412 134.809 26.0172 137.354C26.1311 137.251 26.2451 137.146 26.3557 137.041C28.4626 135.081 30.3339 132.831 31.6003 130.235C32.699 128.036 33.239 125.601 33.1728 123.145C33.0694 120.467 32.0001 117.986 30.4518 115.826C28.7549 113.523 26.7502 111.461 24.4936 109.699C22.2193 107.881 19.7308 106.348 17.0833 105.134C17.0236 105.106 16.9769 105.056 16.9528 104.995C16.9288 104.934 16.9292 104.866 16.9541 104.805C16.9717 104.75 17.0103 104.705 17.0613 104.678C17.0876 104.667 17.1161 104.662 17.1447 104.663C17.1733 104.664 17.2013 104.672 17.2265 104.685C17.5533 104.835 17.878 104.987 18.2 105.146C20.8819 106.469 23.3888 108.119 25.663 110.059C27.8598 111.928 29.9279 114.063 31.4732 116.508Z" fill="white"/>
<path d="M16.322 137.263H33.4933C33.6817 137.263 33.8679 137.303 34.0396 137.381C34.2113 137.458 34.3645 137.571 34.4892 137.712C34.6138 137.853 34.707 138.018 34.7626 138.198C34.8181 138.378 34.8348 138.567 34.8114 138.753L32.6235 156.22C32.5829 156.54 32.4267 156.835 32.184 157.049C31.9414 157.262 31.629 157.381 31.3054 157.381H18.5099C18.1863 157.381 17.8739 157.262 17.6313 157.049C17.3887 156.835 17.2324 156.54 17.1918 156.22L15.0039 138.753C14.9805 138.567 14.9972 138.378 15.0528 138.198C15.1083 138.018 15.2015 137.853 15.3262 137.712C15.4508 137.571 15.6041 137.458 15.7758 137.381C15.9475 137.303 16.1337 137.263 16.322 137.263Z" fill="#F2F2F2"/>
<path d="M72.3089 157.515C73.4957 157.515 74.4579 156.555 74.4579 155.371C74.4579 154.186 73.4957 153.226 72.3089 153.226C71.122 153.226 70.1599 154.186 70.1599 155.371C70.1599 156.555 71.122 157.515 72.3089 157.515Z" fill="#CCCCCC"/>
<path d="M208.052 157.515C209.239 157.515 210.201 156.555 210.201 155.371C210.201 154.186 209.239 153.226 208.052 153.226C206.865 153.226 205.903 154.186 205.903 155.371C205.903 156.555 206.865 157.515 208.052 157.515Z" fill="#CCCCCC"/>
<path d="M111.707 125.527H78.0393C76.4725 125.526 74.9704 124.904 73.8625 123.798C72.7546 122.693 72.1314 121.194 72.1296 119.63V96.7561C72.1314 95.1926 72.7546 93.6936 73.8625 92.5881C74.9704 91.4825 76.4725 90.8607 78.0393 90.8589H111.707C113.273 90.8607 114.776 91.4825 115.883 92.5881C116.991 93.6936 117.614 95.1926 117.616 96.7561V119.63C117.614 121.194 116.991 122.693 115.883 123.798C114.775 124.904 113.273 125.526 111.707 125.527Z" fill="#E6E6E6"/>
<path d="M157.014 125.706H123.347C121.78 125.704 120.278 125.082 119.17 123.977C118.062 122.871 117.439 121.372 117.437 119.809V96.9348C117.439 95.3713 118.062 93.8724 119.17 92.7668C120.278 91.6612 121.78 91.0394 123.347 91.0376H157.014C158.581 91.0394 160.083 91.6612 161.191 92.7668C162.299 93.8724 162.922 95.3713 162.924 96.9348V119.809C162.922 121.372 162.299 122.871 161.191 123.977C160.083 125.082 158.581 125.704 157.014 125.706Z" fill="#E6E6E6"/>
<path d="M202.322 125.885H168.654C167.088 125.883 165.585 125.261 164.477 124.156C163.37 123.05 162.746 121.551 162.745 119.988V97.1135C162.746 95.55 163.37 94.0511 164.477 92.9455C165.585 91.8399 167.088 91.2181 168.654 91.2163H202.322C203.888 91.2181 205.391 91.8399 206.498 92.9455C207.606 94.0511 208.229 95.55 208.231 97.1135V119.988C208.229 121.551 207.606 123.05 206.498 124.156C205.39 125.261 203.888 125.883 202.322 125.885Z" fill="#E6E6E6"/>
<path d="M215.215 124.276H66.9363V155.192H215.215V124.276Z" fill="#E6E6E6"/>
<path d="M72.3087 155.371H65.8618C62.6032 155.371 59.9521 152.367 59.9521 148.675V116.414H72.3087V155.371Z" fill="#E6E6E6"/>
<path d="M214.499 155.371H208.052V111.41H220.409V147.815C220.409 151.981 217.758 155.371 214.499 155.371Z" fill="#E6E6E6"/>
<path d="M117.795 130.71H72.3088V121.06C87.4711 112.381 102.633 112.381 117.795 121.06V130.71Z" fill="#CCCCCC"/>
<path d="M163.103 130.889H117.616V121.239C132.778 112.559 147.941 112.559 163.103 121.239V130.889Z" fill="#CCCCCC"/>
<path d="M208.41 131.067H162.924V121.417C178.086 112.738 193.248 112.738 208.41 121.417V131.067Z" fill="#CCCCCC"/>
<path d="M63.5338 124.634C69.3691 124.634 74.0996 119.913 74.0996 114.09C74.0996 108.267 69.3691 103.547 63.5338 103.547C57.6985 103.547 52.968 108.267 52.968 114.09C52.968 119.913 57.6985 124.634 63.5338 124.634Z" fill="#CCCCCC"/>
<path d="M218.26 124.276C224.095 124.276 228.826 119.556 228.826 113.733C228.826 107.91 224.095 103.189 218.26 103.189C212.425 103.189 207.694 107.91 207.694 113.733C207.694 119.556 212.425 124.276 218.26 124.276Z" fill="#CCCCCC"/>
<path d="M187.136 93.0775C187.16 93.247 187.172 93.4181 187.169 93.5894L199.834 102.3L203.211 100.704L206.291 105.476L200.587 108.88C200.126 109.155 199.588 109.274 199.054 109.218C198.52 109.162 198.019 108.935 197.625 108.57L184.799 96.6909C184.162 96.8697 183.487 96.8508 182.861 96.6369C182.236 96.4229 181.69 96.024 181.298 95.4933C180.905 94.9625 180.684 94.325 180.663 93.6656C180.642 93.0062 180.823 92.3561 181.181 91.8018C181.54 91.2475 182.059 90.8152 182.67 90.5625C183.28 90.3098 183.954 90.2486 184.6 90.3871C185.247 90.5256 185.836 90.8572 186.288 91.3377C186.741 91.8183 187.037 92.4251 187.136 93.0775V93.0775Z" fill="#FFB8B8"/>
<path d="M200.078 101.55C200.134 101.358 200.231 101.18 200.362 101.028C200.492 100.877 200.655 100.755 200.837 100.672L207.205 97.76C208.065 97.2013 209.112 97.0057 210.116 97.2161C211.121 97.4264 212 98.0256 212.563 98.8821C213.125 99.7387 213.324 100.783 213.116 101.785C212.908 102.788 212.31 103.668 211.453 104.231L206.188 108.877C206.038 109.009 205.861 109.108 205.669 109.166C205.477 109.224 205.275 109.24 205.076 109.213C204.877 109.186 204.687 109.117 204.517 109.01C204.348 108.903 204.204 108.761 204.094 108.593L200.249 102.697C200.139 102.53 200.068 102.34 200.038 102.142C200.009 101.944 200.022 101.742 200.078 101.55Z" fill="#106314"/>
<path d="M186.976 93.6451L186.913 93.6497L186.739 91.2525C186.683 90.4863 186.187 89.8978 185.63 89.938L181.937 90.2046C181.38 90.2449 180.354 90.9433 180.41 91.7095L180.455 92.3269L181.363 104.86C181.419 105.627 182.534 106.171 183.092 106.13L186.784 105.864C187.342 105.823 187.748 105.17 187.693 104.403L187.037 95.356L187.1 95.3514L186.976 93.6451Z" fill="#3F3D56"/>
<path d="M186.525 91.2779L187.477 104.409C187.518 104.982 187.215 105.47 186.799 105.5L183.088 105.768C182.672 105.798 182.301 105.358 182.26 104.786L181.308 91.6546C181.266 91.0824 181.57 90.5941 181.986 90.5641L182.436 90.5316C182.405 90.6484 182.412 90.7721 182.455 90.8849C182.499 90.9976 182.577 91.0937 182.679 91.1592C182.722 91.1797 182.769 91.1888 182.817 91.1858L184.932 91.033C185.13 91.0185 185.274 90.7863 185.254 90.5143C185.25 90.4516 185.236 90.3898 185.214 90.3309L185.696 90.2961C186.112 90.2661 186.483 90.7056 186.525 91.2779Z" fill="white"/>
<path d="M134.471 121.6L133.247 118.007L146.551 111.587L148.357 116.889L134.471 121.6Z" fill="#FFB8B8"/>
<path d="M131.293 123.7L127.347 112.116L127.494 112.066C128.087 111.865 128.715 111.782 129.34 111.823C129.965 111.864 130.577 112.027 131.139 112.303C131.701 112.579 132.203 112.964 132.617 113.434C133.03 113.904 133.347 114.45 133.548 115.042L133.548 115.043L135.958 122.117L131.293 123.7Z" fill="#2F2E41"/>
<path d="M187.272 124.163C184.419 124.323 181.574 123.729 179.024 122.44L163.38 111.82L145.114 118.57C144.629 118.735 144.1 118.71 143.633 118.5C143.166 118.29 142.796 117.911 142.598 117.44L141.702 115.291C141.498 114.808 141.492 114.264 141.686 113.776C141.88 113.288 142.258 112.896 142.738 112.684L160.19 104.863C162.285 103.928 164.635 103.725 166.86 104.287L191.087 110.448L197.491 118.037L197.42 118.135C194.276 122.463 190.547 123.927 187.272 124.163Z" fill="#2F2E41"/>
<path d="M207.058 92.4518C211.265 92.4518 214.676 89.0485 214.676 84.8502C214.676 80.6519 211.265 77.2485 207.058 77.2485C202.851 77.2485 199.44 80.6519 199.44 84.8502C199.44 89.0485 202.851 92.4518 207.058 92.4518Z" fill="#FFB8B8"/>
<path d="M199.239 121.421L186.979 112.316L195.34 106.386C195.101 105.618 194.04 101.227 199.842 98.2337C201.679 97.2864 203.002 96.4708 203.775 95.8099C204.872 94.8656 206.277 94.3541 207.726 94.3718C208.639 94.3863 209.536 94.6126 210.346 95.0329C211.157 95.4532 211.858 96.056 212.395 96.7934C212.931 97.5309 213.288 98.3829 213.438 99.2819C213.587 100.181 213.525 101.102 213.256 101.973C212.046 105.898 210.119 111.098 207.808 113.585C205.194 116.395 202.36 118.992 199.331 121.351L199.239 121.421Z" fill="#FF9900"/>
<path d="M136.415 124.783L135.191 121.19L148.495 114.771L150.301 120.073L136.415 124.783Z" fill="#FFB8B8"/>
<path d="M133.237 126.883L129.291 115.3L129.438 115.25C130.031 115.049 130.659 114.966 131.284 115.006C131.909 115.047 132.521 115.21 133.083 115.486C133.645 115.763 134.147 116.147 134.561 116.617C134.974 117.087 135.291 117.634 135.492 118.226L135.492 118.226L137.903 125.301L133.237 126.883Z" fill="#2F2E41"/>
<path d="M189.216 127.347C186.363 127.507 183.518 126.912 180.968 125.624L165.325 115.004L147.058 121.754C146.573 121.918 146.044 121.893 145.577 121.683C145.11 121.473 144.74 121.095 144.542 120.623L143.647 118.474C143.442 117.991 143.436 117.447 143.63 116.959C143.824 116.472 144.202 116.08 144.682 115.867L162.134 108.046C164.229 107.111 166.579 106.908 168.804 107.471L193.031 113.631L199.435 121.22L199.364 121.318C196.22 125.646 192.491 127.11 189.216 127.347Z" fill="#2F2E41"/>
<path d="M185.7 102.196C185.795 102.339 185.878 102.489 185.95 102.645L201.132 105.105L203.5 102.221L208.33 105.217L204.636 110.731C204.337 111.176 203.902 111.513 203.396 111.69C202.889 111.868 202.338 111.877 201.826 111.716L185.138 106.46C184.64 106.894 184.021 107.165 183.364 107.239C182.707 107.313 182.043 107.186 181.46 106.874C180.878 106.562 180.404 106.08 180.102 105.493C179.801 104.906 179.685 104.242 179.771 103.587C179.858 102.933 180.141 102.321 180.585 101.832C181.028 101.342 181.611 100.999 182.254 100.848C182.898 100.697 183.572 100.745 184.188 100.986C184.803 101.227 185.331 101.649 185.7 102.196Z" fill="#FFB8B8"/>
<path d="M201.031 104.324C200.999 104.126 201.01 103.924 201.063 103.731C201.117 103.538 201.211 103.359 201.34 103.206L205.846 97.8534C206.383 96.9811 207.245 96.357 208.243 96.1181C209.241 95.8791 210.293 96.0447 211.169 96.5785C212.044 97.1124 212.672 97.971 212.914 98.966C213.157 99.961 212.994 101.011 212.461 101.887L209.696 108.334C209.618 108.518 209.5 108.683 209.351 108.817C209.203 108.952 209.027 109.053 208.836 109.114C208.645 109.174 208.443 109.193 208.244 109.169C208.044 109.144 207.853 109.077 207.682 108.972L201.678 105.287C201.507 105.183 201.361 105.042 201.249 104.876C201.137 104.71 201.063 104.521 201.031 104.324Z" fill="#FF9900"/>
<path d="M205.022 93.2221C207.235 90.3802 208.463 86.8972 208.519 83.2983C207.477 84.0709 206.298 84.6394 205.043 84.9735C203.712 85.3273 202.249 85.3984 200.995 84.8286C199.231 84.0266 198.187 81.9812 198.388 80.0569C198.588 78.1326 199.921 76.4135 201.656 75.5505C203.432 74.7217 205.458 74.5993 207.322 75.2083C208.307 74.3705 209.514 73.834 210.798 73.6631C212.081 73.4921 213.387 73.694 214.559 74.2445C217.255 75.5651 218.746 78.6234 219.005 81.6096C219.264 84.5958 218.495 87.5649 217.733 90.4641L217.646 90.7916C217.409 91.6942 216.719 93.426 216.719 93.426C216.719 93.426 212.713 92.6371 211.122 92.1314C208.815 92.9633 205.022 93.2221 205.022 93.2221Z" fill="#2F2E41"/>
<path d="M185.926 93.9508L182.662 94.1864C182.58 94.1924 182.499 94.1655 182.437 94.1118C182.375 94.0581 182.336 93.982 182.33 93.9001C182.324 93.8182 182.351 93.7373 182.405 93.6753C182.459 93.6132 182.535 93.575 182.617 93.569L185.881 93.3334C185.922 93.3304 185.963 93.3354 186.002 93.3481C186.04 93.3609 186.076 93.3811 186.107 93.4077C186.138 93.4343 186.163 93.4667 186.182 93.5031C186.2 93.5395 186.211 93.5791 186.214 93.6197C186.217 93.6603 186.212 93.7011 186.199 93.7397C186.186 93.7783 186.165 93.814 186.139 93.8448C186.112 93.8755 186.079 93.9007 186.043 93.9189C186.006 93.9371 185.967 93.9479 185.926 93.9508Z" fill="#3F3D56"/>
<path d="M186.038 95.4942L182.774 95.7298C182.733 95.7329 182.693 95.7279 182.654 95.7151C182.615 95.7023 182.579 95.6821 182.548 95.6555C182.518 95.6289 182.492 95.5965 182.474 95.5601C182.456 95.5238 182.445 95.4841 182.442 95.4435C182.439 95.403 182.444 95.3622 182.457 95.3236C182.47 95.2849 182.49 95.2492 182.517 95.2185C182.543 95.1877 182.576 95.1625 182.612 95.1443C182.649 95.1261 182.689 95.1153 182.729 95.1125L185.993 94.8768C186.075 94.8709 186.156 94.8977 186.219 94.9514C186.281 95.0051 186.319 95.0813 186.325 95.1631C186.331 95.245 186.304 95.3259 186.25 95.388C186.197 95.4501 186.12 95.4883 186.038 95.4942Z" fill="#3F3D56"/>
<path d="M186.15 97.0376L182.886 97.2733C182.804 97.279 182.723 97.2521 182.661 97.1984C182.599 97.1447 182.561 97.0687 182.555 96.9869C182.549 96.9051 182.576 96.8244 182.63 96.7623C182.683 96.7003 182.759 96.662 182.841 96.6559L186.105 96.4202C186.187 96.4143 186.268 96.4412 186.331 96.4949C186.393 96.5486 186.431 96.6247 186.437 96.7066C186.443 96.7885 186.416 96.8693 186.362 96.9314C186.308 96.9935 186.232 97.0317 186.15 97.0376Z" fill="#3F3D56"/>
<path d="M280.69 158H0.310155C0.227896 158 0.149007 157.967 0.0908419 157.909C0.0326767 157.851 0 157.773 0 157.691C0 157.609 0.0326767 157.53 0.0908419 157.472C0.149007 157.414 0.227896 157.381 0.310155 157.381H280.69C280.772 157.381 280.851 157.414 280.909 157.472C280.967 157.53 281 157.609 281 157.691C281 157.773 280.967 157.851 280.909 157.909C280.851 157.967 280.772 158 280.69 158Z" fill="#DEDEDE"/>
<path d="M149.116 54.9363H117.79C117.05 54.9354 116.341 54.6417 115.818 54.1195C115.294 53.5973 115 52.8893 114.999 52.1508V25.2242C115 24.4857 115.294 23.7777 115.818 23.2555C116.341 22.7333 117.05 22.4396 117.79 22.4387H149.116C149.856 22.4396 150.566 22.7333 151.089 23.2555C151.612 23.7777 151.907 24.4857 151.907 25.2242V52.1508C151.907 52.8893 151.612 53.5973 151.089 54.1195C150.566 54.6417 149.856 54.9354 149.116 54.9363ZM117.79 23.0577C117.215 23.0584 116.663 23.2868 116.256 23.693C115.849 24.0991 115.62 24.6498 115.619 25.2242V52.1508C115.62 52.7252 115.849 53.2758 116.256 53.682C116.663 54.0882 117.215 54.3166 117.79 54.3173H149.116C149.692 54.3166 150.243 54.0882 150.65 53.682C151.058 53.2758 151.286 52.7252 151.287 52.1508V25.2242C151.286 24.6498 151.058 24.0991 150.65 23.693C150.243 23.2868 149.692 23.0584 149.116 23.0577H117.79Z" fill="#F2F2F2"/>
<path d="M144.536 50.758H122.37C121.671 50.7572 121.001 50.4798 120.507 49.9866C120.013 49.4934 119.735 48.8247 119.734 48.1272V29.2477C119.735 28.5502 120.013 27.8815 120.507 27.3883C121.001 26.8952 121.671 26.6177 122.37 26.6169H144.536C145.235 26.6177 145.905 26.8952 146.399 27.3883C146.893 27.8815 147.171 28.5502 147.172 29.2477V48.1272C147.171 48.8247 146.893 49.4934 146.399 49.9866C145.905 50.4798 145.235 50.7572 144.536 50.758Z" fill="#E6E6E6"/>
<path d="M133.608 18.4153C134.465 18.4153 135.159 17.7225 135.159 16.8678C135.159 16.0132 134.465 15.3203 133.608 15.3203C132.752 15.3203 132.057 16.0132 132.057 16.8678C132.057 17.7225 132.752 18.4153 133.608 18.4153Z" fill="#F2F2F2"/>
<path d="M136.869 22.9073L133.609 17.4716L130.368 22.9064L129.835 22.5901L133.607 16.2639L137.401 22.5892L136.869 22.9073Z" fill="#F2F2F2"/>
<path d="M137.175 36.5212C137.174 36.0528 137.123 35.5858 137.021 35.1284H132.368C132.039 35.1284 131.723 35.2589 131.49 35.491C131.258 35.7232 131.127 36.0381 131.127 36.3664V42.9972C132.769 42.881 134.306 42.1482 135.428 40.9466C136.55 39.745 137.174 38.1637 137.175 36.5212Z" fill="#FF9900"/>
<path d="M130.662 43.3302C129.375 43.3306 128.114 42.9679 127.025 42.2838C125.936 41.5997 125.062 40.6222 124.506 39.4641C123.95 38.306 123.733 37.0145 123.881 35.7388C124.029 34.463 124.535 33.255 125.342 32.2542C126.148 31.2534 127.222 30.5006 128.439 30.0827C129.656 29.6648 130.966 29.5989 132.219 29.8925C133.472 30.1861 134.616 30.8273 135.52 31.7421C136.423 32.6569 137.049 33.8079 137.324 35.0624L137.407 35.4379H132.368C132.121 35.4382 131.884 35.5361 131.71 35.7102C131.536 35.8842 131.437 36.1203 131.437 36.3664V43.2856L131.095 43.3098C130.951 43.3202 130.808 43.3302 130.662 43.3302ZM130.662 30.3312C129.017 30.3312 127.439 30.9833 126.276 32.1442C125.112 33.305 124.459 34.8795 124.459 36.5212C124.459 38.1629 125.112 39.7373 126.276 40.8982C127.439 42.059 129.017 42.7112 130.662 42.7112C130.714 42.7112 130.765 42.7097 130.817 42.7073V36.3664C130.817 35.9561 130.981 35.5628 131.272 35.2727C131.562 34.9826 131.956 34.8194 132.368 34.8189H136.623C136.248 33.5293 135.464 32.3955 134.39 31.5867C133.315 30.7779 132.008 30.3375 130.662 30.3312Z" fill="white"/>
<path d="M139.811 45.3419H132.368C131.957 45.3414 131.562 45.1782 131.272 44.8881C130.981 44.598 130.817 44.2046 130.817 43.7944V42.7088L131.105 42.6884C131.993 42.6273 132.857 42.3756 133.639 41.9506C134.42 41.5256 135.101 40.9373 135.634 40.2259C136.167 39.5145 136.539 38.6967 136.727 37.8284C136.914 36.9601 136.911 36.0617 136.718 35.1945L136.636 34.8188H139.811C140.223 34.8193 140.617 34.9825 140.907 35.2726C141.198 35.5627 141.362 35.9561 141.362 36.3663V43.7944C141.362 44.2046 141.198 44.598 140.907 44.8881C140.617 45.1782 140.223 45.3414 139.811 45.3419ZM131.437 43.2793V43.7944C131.437 44.0405 131.536 44.2765 131.71 44.4506C131.884 44.6247 132.121 44.7226 132.368 44.7229H139.811C140.058 44.7226 140.295 44.6247 140.469 44.4506C140.643 44.2765 140.742 44.0405 140.742 43.7944V36.3663C140.742 36.1202 140.643 35.8842 140.469 35.7101C140.295 35.536 140.058 35.4381 139.811 35.4378H137.396C137.455 35.796 137.485 36.1582 137.485 36.5211C137.479 38.1907 136.861 39.8003 135.746 41.0456C134.632 42.2909 133.099 43.0856 131.437 43.2793Z" fill="white"/>
</g>
<defs>
<clipPath id="clip0_42_309">
<rect width="281" height="158" fill="white"/>
</clipPath>
</defs>
</svg>
