<svg width="23" height="24" viewBox="0 0 23 24" fill="none" xmlns="http://www.w3.org/2000/svg">
<g clip-path="url(#clip0_6_58)">
<path d="M22.3359 12.2719C22.3359 18.9047 17.9675 23.625 11.5163 23.625C5.33102 23.625 0.335938 18.4312 0.335938 12C0.335938 5.56875 5.33102 0.375 11.5163 0.375C14.5277 0.375 17.0613 1.52344 19.0134 3.41719L15.9704 6.45937C11.9896 2.46563 4.58717 5.46562 4.58717 12C4.58717 16.0547 7.70233 19.3406 11.5163 19.3406C15.9433 19.3406 17.6023 16.0406 17.8638 14.3297H11.5163V10.3312H22.1601C22.2638 10.9266 22.3359 11.4984 22.3359 12.2719Z" fill="#2E2E2E"/>
</g>
<defs>
<clipPath id="clip0_6_58">
<rect width="22" height="24" fill="white" transform="translate(0.335938)"/>
</clipPath>
</defs>
</svg>
