<svg width="22" height="22" fill="none" xmlns="http://www.w3.org/2000/svg"><path d="M6.417 8.25a1.833 1.833 0 1 0 0-3.667 1.833 1.833 0 0 0 0 3.667Z" fill="#F90"/><path d="M18.334 11.917v-7.49a2.598 2.598 0 0 0-2.595-2.594c-.687 0-1.347.275-1.833.761L12.76 3.74a1.56 1.56 0 0 0-.467-.073c-.367 0-.706.11-.99.293l2.53 2.53a1.82 1.82 0 0 0 .293-.99 1.98 1.98 0 0 0-.064-.468l1.146-1.145a.759.759 0 0 1 1.292.54v7.49h-6.279a4.674 4.674 0 0 1-.752-.66L8.186 9.836a1.967 1.967 0 0 0-.633-.459 2.064 2.064 0 0 0-2.97 1.852v.688h-2.75v5.5c0 1.008.826 1.833 1.834 1.833a.92.92 0 0 0 .917.917h12.833a.92.92 0 0 0 .916-.917 1.839 1.839 0 0 0 1.834-1.833v-5.5h-1.834Zm0 5.5H3.667V13.75h14.667v3.667Z" fill="#F90"/></svg>