<svg width="24" height="25" fill="none" xmlns="http://www.w3.org/2000/svg"><path d="M12.01 12.618c-.15.422-.15.823-.08 1.285.1.552.33 1.043.2 1.605-.13.593-.77 1.385-1.53 1.636 1.28 1.054 3.2.372 3.39-1.324.17-1.546-1.44-1.988-1.98-3.202Z" fill="#095831"/><path d="M2 2.12v20.072h20V2.12H2Zm10 16.058c-1.58 0-2.97-1.887-3-3.071 0-.05-.01-.13-.01-.22-.13-1.737 1-3.212 2.47-4.387.47 1.014 1.27 2.038 2.57 2.93.58.422.97.864.97 1.737 0 1.656-1.35 3.011-3 3.011Zm8 2.007h-2v-2.007h-2.02a5.01 5.01 0 0 0 1.02-3.01c0-1.898-1.09-2.861-1.85-3.383C12.2 9.758 13 7.138 13 7.138c-6.73 3.583-6.02 7.497-6 8.03.03.963.49 2.077 1.23 3.01H6v2.007H4V4.127h16v16.058Z" fill="#095831"/></svg>