<svg width="24" height="25" fill="none" xmlns="http://www.w3.org/2000/svg"><path d="M18 13.16c-3.31 0-6 2.7-6 6.022 3.31 0 6-2.7 6-6.022Zm-12 0c0 3.322 2.69 6.022 6 6.022 0-3.322-2.69-6.022-6-6.022Zm2-1.977c0 .863.7 1.566 1.56 1.566.33 0 .63-.1.89-.282l-.01.12c0 .864.7 1.566 1.56 1.566.86 0 1.56-.702 1.56-1.565l-.01-.12c.25.17.56.28.89.28.86 0 1.56-.702 1.56-1.565a1.58 1.58 0 0 0-.89-1.415c.52-.241.89-.783.89-1.405 0-.863-.7-1.566-1.56-1.566-.33 0-.63.1-.89.281l.01-.12c0-.863-.7-1.566-1.56-1.566-.86 0-1.56.703-1.56 1.566l.01.12c-.25-.18-.56-.28-.89-.28C8.7 6.797 8 7.5 8 8.362c0 .622.37 1.164.89 1.415-.52.24-.89.783-.89 1.405Zm4-2.98a1.565 1.565 0 0 1 0 3.131c-.86 0-1.56-.703-1.56-1.566 0-.863.7-1.566 1.56-1.566Zm8-4.076v16.058H4V4.127h16Zm0-2.007H4c-1.1 0-2 .903-2 2.007v16.058c0 1.104.9 2.008 2 2.008h16c1.1 0 2-.904 2-2.008V4.127a2.01 2.01 0 0 0-2-2.007Z" fill="#095831"/></svg>