<svg width="24" height="24" viewBox="0 0 24 24" fill="none" xmlns="http://www.w3.org/2000/svg">
<path fill-rule="evenodd" clip-rule="evenodd" d="M16.9032 23.6883C17.0999 24.2076 17.5146 24.0518 17.8652 23.4157C18.5622 22.1478 17.3992 18.1883 13.5595 13.0865C16.8861 19.4433 21.6408 19.3005 23.5093 15.3367C25.4291 11.2734 21.551 7.01535 14.7525 9.56843C21.9957 8.24862 21.0037 2.67943 17.5745 0.749467C14.2351 -1.12857 8.85188 0.230195 10.8444 8.19236C8.14209 0.182596 2.2073 1.37692 0.646632 5.75179C-0.841343 9.93192 -0.452247 16.1718 9.39918 11.797C1.95075 15.0035 2.26716 19.7289 4.93953 21.8708C9.39918 25.4495 13.7391 22.1088 12.6274 13.5149C15.133 16.5223 17.1597 19.9539 16.9032 23.6883Z" fill="#42962F"/>
</svg>
