<svg width="17" height="20" fill="none" xmlns="http://www.w3.org/2000/svg"><g clip-path="url(#a)"><path d="M8.142 10.148c2.54 0 4.599-2.122 4.599-4.74 0-2.62-2.059-4.741-4.599-4.741s-4.598 2.122-4.598 4.74c0 2.619 2.058 4.741 4.598 4.741Zm3.219 1.185h-.6a6.103 6.103 0 0 1-2.619.593 6.115 6.115 0 0 1-2.619-.593h-.6c-2.666 0-4.828 2.23-4.828 4.978v1.54c0 .982.772 1.779 1.724 1.779h12.646c.952 0 1.724-.797 1.724-1.778v-1.54c0-2.75-2.162-4.979-4.828-4.979Z" fill="#2E2E2E"/></g><defs><clipPath id="a"><path fill="#fff" transform="translate(.095 .667)" d="M0 0h16.095v18.963H0z"/></clipPath></defs></svg>