<svg width="53" height="52" fill="none" xmlns="http://www.w3.org/2000/svg"><path d="M48.01 38c0 1.105.894 2 1.996 2a1.998 1.998 0 0 0 1.997-2c0-1.105-.894-2-1.997-2a1.998 1.998 0 0 0-1.996 2ZM48.01 50c0 1.105.894 2 1.996 2a1.998 1.998 0 0 0 1.997-2c0-1.105-.894-2-1.997-2a1.998 1.998 0 0 0-1.996 2ZM36.03 14c0 1.105.894 2 1.997 2a1.998 1.998 0 0 0 1.997-2c0-1.105-.894-2-1.997-2a1.998 1.998 0 0 0-1.996 2ZM36.03 26c0 1.105.894 2 1.997 2a1.998 1.998 0 0 0 1.997-2c0-1.105-.894-2-1.997-2a1.998 1.998 0 0 0-1.996 2ZM36.03 38c0 1.105.894 2 1.997 2a1.998 1.998 0 0 0 1.997-2c0-1.105-.894-2-1.997-2a1.998 1.998 0 0 0-1.996 2ZM36.03 50c0 1.105.894 2 1.997 2a1.998 1.998 0 0 0 1.997-2c0-1.105-.894-2-1.997-2a1.998 1.998 0 0 0-1.996 2ZM24.051 14c0 1.105.894 2 1.997 2a1.998 1.998 0 0 0 1.996-2c0-1.105-.894-2-1.996-2a1.998 1.998 0 0 0-1.997 2ZM24.051 26c0 1.105.894 2 1.997 2a1.998 1.998 0 0 0 1.996-2c0-1.105-.894-2-1.996-2a1.998 1.998 0 0 0-1.997 2ZM24.051 38c0 1.105.894 2 1.997 2a1.998 1.998 0 0 0 1.996-2c0-1.105-.894-2-1.996-2a1.998 1.998 0 0 0-1.997 2ZM24.051 50c0 1.105.894 2 1.997 2a1.998 1.998 0 0 0 1.996-2c0-1.105-.894-2-1.996-2a1.998 1.998 0 0 0-1.997 2ZM12.072 2c0 1.105.894 2 1.996 2a1.998 1.998 0 0 0 1.997-2c0-1.105-.894-2-1.997-2a1.998 1.998 0 0 0-1.996 2ZM12.072 14c0 1.105.894 2 1.996 2a1.998 1.998 0 0 0 1.997-2c0-1.105-.894-2-1.997-2a1.998 1.998 0 0 0-1.996 2ZM12.072 26c0 1.105.894 2 1.996 2a1.998 1.998 0 0 0 1.997-2c0-1.105-.894-2-1.997-2a1.998 1.998 0 0 0-1.996 2ZM12.072 38c0 1.105.894 2 1.996 2a1.998 1.998 0 0 0 1.997-2c0-1.105-.894-2-1.997-2a1.998 1.998 0 0 0-1.996 2ZM12.072 50c0 1.105.894 2 1.996 2a1.998 1.998 0 0 0 1.997-2c0-1.105-.894-2-1.997-2a1.998 1.998 0 0 0-1.996 2ZM.092 2c0 1.105.894 2 1.997 2a1.998 1.998 0 0 0 1.997-2c0-1.105-.894-2-1.997-2A1.998 1.998 0 0 0 .092 2ZM.092 14c0 1.105.894 2 1.997 2a1.998 1.998 0 0 0 1.997-2c0-1.105-.894-2-1.997-2a1.998 1.998 0 0 0-1.997 2ZM.092 26c0 1.105.894 2 1.997 2a1.998 1.998 0 0 0 1.997-2c0-1.105-.894-2-1.997-2a1.998 1.998 0 0 0-1.997 2ZM.092 38c0 1.105.894 2 1.997 2a1.998 1.998 0 0 0 1.997-2c0-1.105-.894-2-1.997-2a1.998 1.998 0 0 0-1.997 2ZM.092 50c0 1.105.894 2 1.997 2a1.998 1.998 0 0 0 1.997-2c0-1.105-.894-2-1.997-2a1.998 1.998 0 0 0-1.997 2Z" fill="#DEDEDE"/></svg>