<svg width="17" height="18" fill="none" xmlns="http://www.w3.org/2000/svg"><g clip-path="url(#a)"><path d="M16.19 6.407c0 3.15-2.477 5.704-5.533 5.704-.353 0-.697-.034-1.032-.1l-.755.876a.756.756 0 0 1-.564.261h-1.17v1.296c0 .43-.337.778-.754.778H5.125v1.296c0 .43-.338.778-.755.778H.85a.766.766 0 0 1-.755-.777v-2.53a.79.79 0 0 1 .22-.55l5.087-5.244a5.86 5.86 0 0 1-.277-1.788c0-3.15 2.477-5.703 5.532-5.703 3.065 0 5.533 2.544 5.533 5.703Zm-5.533-1.555c0 .859.676 1.555 1.509 1.555.833 0 1.509-.696 1.509-1.555 0-.86-.676-1.556-1.509-1.556-.833 0-1.509.697-1.509 1.556Z" fill="#2E2E2E"/></g><defs><clipPath id="a"><path fill="#fff" transform="translate(.095 .704)" d="M0 0h16.095v16.593H0z"/></clipPath></defs></svg>