<svg width="24" height="25" fill="none" xmlns="http://www.w3.org/2000/svg"><path d="m18 2.654-12-.01c-1.11 0-2 .893-2 2.007v16.058c0 1.114.89 2.007 2 2.007h12c1.11 0 2-.893 2-2.008V4.652c0-1.114-.89-1.997-2-1.997Zm0 18.055H6L5.99 4.65H18v16.058Z" fill="#095831"/><path d="M8 7.662c.552 0 1-.45 1-1.004s-.448-1.004-1-1.004-1 .45-1 1.004.448 1.004 1 1.004ZM11 7.662c.552 0 1-.45 1-1.004s-.448-1.004-1-1.004-1 .45-1 1.004.448 1.004 1 1.004ZM12 19.705c2.76 0 5-2.248 5-5.018 0-2.77-2.24-5.018-5-5.018s-5 2.248-5 5.018c0 2.77 2.24 5.018 5 5.018Zm2.36-7.387a3.364 3.364 0 0 1 0 4.737 3.335 3.335 0 0 1-4.72 0l4.72-4.737Z" fill="#095831"/></svg>