<svg width="15" height="13" fill="none" xmlns="http://www.w3.org/2000/svg"><g clip-path="url(#a)"><path d="M7.792 10.25c-1.67 0-3.021-1.373-3.146-3.113L2.337 5.242a7.851 7.851 0 0 0-.808 1.3.795.795 0 0 0 0 .682c1.194 2.474 3.557 4.148 6.263 4.148a6.46 6.46 0 0 0 1.714-.244l-1.142-.939c-.189.039-.38.06-.572.061Zm6.907 1.359L12.266 9.61a7.686 7.686 0 0 0 1.788-2.387.794.794 0 0 0 0-.683c-1.193-2.474-3.557-4.148-6.262-4.148a6.472 6.472 0 0 0-3.243.882l-2.8-2.3A.345.345 0 0 0 1.489.9a.338.338 0 0 0-.235.142l-.432.591a.391.391 0 0 0 .062.525l12.95 10.633a.346.346 0 0 0 .26.076.338.338 0 0 0 .235-.141l.432-.591a.39.39 0 0 0-.062-.525Zm-4.044-3.32-.865-.711a2.34 2.34 0 0 0-.096-1.696 2.193 2.193 0 0 0-.613-.792 2.028 2.028 0 0 0-.883-.415 1.968 1.968 0 0 0-.964.052c.133.19.205.422.205.66a1.154 1.154 0 0 1-.033.233l-1.62-1.33a3.024 3.024 0 0 1 2.006-.774c.416 0 .828.086 1.213.255.384.17.734.417 1.028.73.295.313.528.684.687 1.093a3.456 3.456 0 0 1-.065 2.694Z" fill="#595959"/></g><defs><clipPath id="a"><path fill="#fff" transform="translate(.748 .896)" d="M0 0h14.087v11.972H0z"/></clipPath></defs></svg>