<svg width="40" height="35" viewBox="0 0 40 35" fill="none" xmlns="http://www.w3.org/2000/svg">
<path d="M28.62 35C25.959 34.3086 23.9774 32.7819 22.6752 30.4198C21.373 28 20.7219 25.1481 20.7219 21.8642C20.7219 16.679 22.3638 12.214 25.6476 8.46913C28.988 4.66667 32.8662 1.84362 37.2824 0L40 4.49383L39.9151 5.35803C37.707 6.16461 35.7537 7.89301 34.0552 10.5432C32.3567 13.1934 31.5074 15.9588 31.5074 18.8395C31.5074 20.6831 31.8754 22.2099 32.6115 23.4198C33.3475 24.572 34.3666 25.2058 35.6688 25.321L35.414 27.0494L28.62 35ZM7.89809 35C5.23708 34.3086 3.25548 32.7819 1.95329 30.4198C0.651097 28 0 25.1481 0 21.8642C0 16.679 1.6419 12.214 4.92569 8.46913C8.2661 4.66667 12.1444 1.84362 16.5605 0L19.2781 4.49383L19.1932 5.35803C16.9851 6.16461 15.0318 7.89301 13.3333 10.5432C11.6348 13.1934 10.7856 15.9588 10.7856 18.8395C10.7856 20.6831 11.1536 22.2099 11.8896 23.4198C12.6256 24.572 13.6447 25.2058 14.9469 25.321L14.6921 27.0494L7.89809 35Z" fill="#095831"/>
</svg>
