<svg width="197" height="67" fill="none" xmlns="http://www.w3.org/2000/svg"><path d="M1.62 15.256c0-.528.108-.924.324-1.188 2.28-1.296 4.8-1.944 7.56-1.944 2.52 0 4.716.336 6.588 1.008 1.896.672 3.408 1.632 4.536 2.88a11.93 11.93 0 0 1 2.556 4.32c.552 1.608.828 3.42.828 5.436 0 3.984-1.104 6.972-3.312 8.964-2.208 1.992-5.688 2.988-10.44 2.988-2.808 0-5.496-.504-8.064-1.512-.24-.24-.36-1.068-.36-2.484 0-.792.036-1.308.108-1.548.072-.36.576-.54 1.512-.54.264 0 .564.024.9.072-.24-1.68-.36-3.912-.36-6.696 0-2.472.144-4.752.432-6.84a3.748 3.748 0 0 1-.972.108c-.936 0-1.44-.18-1.512-.54-.216-.912-.324-1.74-.324-2.484Zm7.884 17.316c.696.24 1.452.36 2.268.36 1.992 0 3.708-.684 5.148-2.052 1.464-1.392 2.196-3.18 2.196-5.364 0-2.232-.72-4.236-2.16-6.012-1.44-1.776-3.168-2.664-5.184-2.664-.84 0-1.596.168-2.268.504.216 2.16.324 4.62.324 7.38 0 3.288-.108 5.904-.324 7.848Zm16.883-9.432c0-1.656.12-2.676.36-3.06 1.8-.48 3.36-.72 4.68-.72.936 0 2.016.216 3.24.648.168.12.348.552.54 1.296.192.72.288 1.344.288 1.872 0 .792-.216 1.476-.648 2.052-.264.168-.612.252-1.044.252-.336 0-.66-.06-.972-.18 0 .072-.012.384-.036.936v1.044c0 1.512.408 2.844 1.224 3.996.84 1.128 1.884 1.692 3.132 1.692 1.08 0 2.064-.432 2.952-1.296.912-.888 1.368-2.268 1.368-4.14 0-.672-.036-1.548-.108-2.628-.288.168-.66.252-1.116.252-.432 0-.696-.06-.792-.18-.24 0-.36-.48-.36-1.44 0-.216.12-1.2.36-2.952 1.728-.84 3.96-1.26 6.696-1.26 2.064 0 3.384.348 3.96 1.044.216.288.324.792.324 1.512 0 1.488-.324 2.412-.972 2.772-.864.216-1.584.324-2.16.324-.336 0-.624-.024-.864-.072 0 .696.024 1.824.072 3.384.048 1.536.072 2.7.072 3.492.096 0 .492-.024 1.188-.072.696-.072 1.104-.108 1.224-.108.096 0 .24.024.432.072.192.048.336.072.432.072.096.096.144.348.144.756 0 .648-.096 1.464-.288 2.448-.192.96-.372 1.548-.54 1.764-.72.432-2.088.648-4.104.648-1.296 0-2.16-.084-2.592-.252-.432-.168-.648-.54-.648-1.116 0-.72.06-1.44.18-2.16-2.256 2.592-4.692 3.888-7.308 3.888-4.128 0-6.192-2.904-6.192-8.712 0-1.152.072-2.28.216-3.384-.024.024-.132.036-.324.036-.36 0-.924-.06-1.692-.18-.216-.24-.324-1.02-.324-2.34Zm25.797-10.368c0-1.08.049-1.752.145-2.016l.035-.036c.049-.048.145-.108.289-.18a4.19 4.19 0 0 1 .54-.216c.24-.072.6-.132 1.08-.18.48-.048 1.02-.072 1.62-.072 2.831 0 4.667.36 5.508 1.08.12.24.18 1.548.18 3.924 0 1.008-.025 1.968-.073 2.88-.024.888-.036 1.356-.036 1.404 1.008-.288 1.944-.432 2.809-.432 2.423 0 4.343.948 5.76 2.844 1.44 1.872 2.16 4.02 2.16 6.444 0 1.392-.24 2.796-.72 4.212a9.221 9.221 0 0 1-2.197 3.672c-1.008 1.032-2.148 1.548-3.42 1.548-.791 0-1.776-.3-2.952-.9-1.151-.624-1.92-.996-2.303-1.116.023.024.035.132.035.324 0 .384-.06.804-.18 1.26-.48.096-1.86.144-4.14.144-2.136 0-3.431-.372-3.887-1.116-.072-.288-.108-.96-.108-2.016 0-1.896.096-2.916.288-3.06.384-.24 1.26-.36 2.628-.36.696 0 1.128.048 1.296.144-.024-.912-.036-2.256-.036-4.032v-3.528c.023-1.272.047-2.676.072-4.212.023-1.536.035-2.784.035-3.744-.096.024-.288.036-.576.036-1.727 0-2.964-.216-3.708-.648-.096-.264-.144-.948-.144-2.052Zm8.928 18.72c0 .216.349.492 1.044.828.697.312 1.333.468 1.908.468.937 0 1.777-.456 2.52-1.368.745-.912 1.117-2.1 1.117-3.564 0-1.2-.264-2.352-.792-3.456-.505-1.128-1.32-1.728-2.449-1.8-.863 0-1.607.216-2.231.648-.6.408-.913.84-.937 1.296-.023.312-.047.756-.072 1.332 0 .576-.011 1.404-.035 2.484l-.073 3.132Zm13.445 2.628c0-1.032.084-1.632.252-1.8.624-.288 1.32-.432 2.088-.432-.264-1.584-.396-4.008-.396-7.272 0-3.84.12-7.176.36-10.008-.696 0-1.236-.048-1.62-.144a12.17 12.17 0 0 1-.072-1.152c0-1.056.252-1.968.756-2.736a12.9 12.9 0 0 1 2.916-.36c1.152 0 2.052.12 2.7.36.24 2.256.36 4.644.36 7.164 0 1.776-.084 4.308-.252 7.596-.144 3.288-.228 5.52-.252 6.696.12-.024.312-.036.576-.036.72 0 1.308.132 1.764.396.096.192.144.48.144.864 0 .576-.096 1.272-.288 2.088-.192.792-.384 1.356-.576 1.692-.312.24-1.5.36-3.564.36-1.128 0-2.148-.096-3.06-.288-.888-.192-1.416-.432-1.584-.72-.168-.288-.252-1.044-.252-2.268Zm11.353.252c0-1.224.072-1.92.216-2.088.288-.168.648-.276 1.08-.324.288-.048.912-.072 1.872-.072a52.221 52.221 0 0 1-.216-4.932c0-1.944.12-3.18.36-3.708-1.176 0-1.956-.048-2.34-.144.024-.648.108-1.332.252-2.052.048-.312.192-.924.432-1.836.888-.168 2.376-.252 4.464-.252.84 0 1.608.048 2.304.144.72.096 1.26.216 1.62.36.384.12.576.24.576.36.048 0 .072.432.072 1.296 0 1.368-.12 2.232-.36 2.592-.096.144-.384.216-.864.216-.888 0-1.452-.06-1.692-.18-.264 1.68-.396 3.864-.396 6.552 0 1.104.036 1.68.108 1.728.144-.024.348-.036.612-.036.864 0 1.56.132 2.088.396.072.096.108.312.108.648 0 .6-.084 1.32-.252 2.16-.168.84-.408 1.416-.72 1.728-.288.288-1.224.432-2.808.432-3.768 0-5.856-.348-6.264-1.044-.168-.312-.252-.96-.252-1.944Zm2.88-22.428c0-.672.36-1.008 1.08-1.008.6 0 1.248.18 1.944.54.504-.504 1.176-.756 2.016-.756.528 0 .996.18 1.404.54.408.36.612.852.612 1.476 0 .312-.072.612-.216.9-.12.288-.252.528-.396.72-.144.192-.384.42-.72.684-.336.24-.6.42-.792.54l-.936.54a24 24 0 0 0-.864.468c-.936-.696-1.692-1.476-2.268-2.34-.576-.888-.864-1.656-.864-2.304ZM98.993 34.84c0-1.488.324-2.412.972-2.772.6-.216 1.416-.324 2.448-.324.144 0 .336.024.576.072 0-.696-.024-1.812-.072-3.348-.048-1.56-.072-2.736-.072-3.528-.096 0-.492.036-1.188.108-.696.048-1.104.072-1.224.072a1.97 1.97 0 0 1-.432-.072 1.974 1.974 0 0 0-.432-.072c-.096-.096-.144-.348-.144-.756 0-.648.096-1.452.288-2.412.192-.984.372-1.584.54-1.8.696-.432 1.968-.648 3.816-.648 1.464 0 2.412.084 2.844.252.456.144.684.516.684 1.116 0 .72-.06 1.44-.18 2.16 2.256-2.592 4.692-3.888 7.308-3.888 4.128 0 6.192 2.904 6.192 8.712 0 1.176-.072 2.316-.216 3.42 0-.048.108-.072.324-.072.36 0 .924.06 1.692.18.216.24.324 1.02.324 2.34 0 1.656-.12 2.676-.36 3.06-1.8.48-3.36.72-4.68.72-.936 0-2.016-.216-3.24-.648-.168-.12-.348-.54-.54-1.26-.192-.744-.288-1.38-.288-1.908 0-.792.216-1.476.648-2.052.264-.168.612-.252 1.044-.252.336 0 .66.06.972.18v-.936c.024-.552.036-.9.036-1.044 0-1.512-.42-2.832-1.26-3.96-.816-1.152-1.848-1.728-3.096-1.728-1.08 0-2.076.444-2.988 1.332-.888.864-1.332 2.232-1.332 4.104 0 .672.036 1.548.108 2.628.288-.168.66-.252 1.116-.252.432 0 .696.06.792.18.24 0 .36.48.36 1.44 0 .216-.12 1.2-.36 2.952-1.728.84-3.924 1.26-6.588 1.26-2.184 0-3.54-.336-4.068-1.008-.216-.264-.324-.78-.324-1.548Zm34.155-.576c0-1.152.072-1.8.216-1.944.216-.12.636-.228 1.26-.324.432-.072.708-.108.828-.108a60.678 60.678 0 0 1-.432-7.236c0-2.328.144-4.644.432-6.948-.12 0-.396-.036-.828-.108-.624-.096-1.044-.204-1.26-.324-.144-.144-.216-.792-.216-1.944 0-1.248.072-1.956.216-2.124-.024-.288.36-.516 1.152-.684.816-.192 1.824-.288 3.024-.288 1.272 0 2.556.108 3.852.324.144.24.324.852.54 1.836.216.96.312 1.692.288 2.196 0 .312-.036.516-.108.612a3.81 3.81 0 0 1-1.728.396c-.264 0-.468-.012-.612-.036.288 1.944.432 4.056.432 6.336 0 1.872-.144 4.584-.432 8.136.144-.024.348-.036.612-.036.624 0 1.2.132 1.728.396.072.096.108.3.108.612 0 .504-.108 1.248-.324 2.232-.192.96-.36 1.56-.504 1.8-1.368.12-2.616.18-3.744.18-1.248 0-2.28-.072-3.096-.216-.816-.144-1.212-.348-1.188-.612-.144-.168-.216-.876-.216-2.124Zm12.04.576c0-1.488.324-2.412.972-2.772.6-.216 1.416-.324 2.448-.324.144 0 .336.024.576.072 0-.696-.024-1.812-.072-3.348-.048-1.56-.072-2.736-.072-3.528-.096 0-.492.036-1.188.108-.696.048-1.104.072-1.224.072a1.97 1.97 0 0 1-.432-.072 1.97 1.97 0 0 0-.432-.072c-.096-.096-.144-.348-.144-.756 0-.648.096-1.452.288-2.412.192-.984.372-1.584.54-1.8.696-.432 1.968-.648 3.816-.648 1.464 0 2.412.084 2.844.252.456.144.684.516.684 1.116 0 .72-.06 1.44-.18 2.16 2.256-2.592 4.692-3.888 7.308-3.888 4.128 0 6.192 2.904 6.192 8.712 0 1.176-.072 2.316-.216 3.42 0-.048.108-.072.324-.072.36 0 .924.06 1.692.18.216.24.324 1.02.324 2.34 0 1.656-.12 2.676-.36 3.06-1.8.48-3.36.72-4.68.72-.936 0-2.016-.216-3.24-.648-.168-.12-.348-.54-.54-1.26-.192-.744-.288-1.38-.288-1.908 0-.792.216-1.476.648-2.052.264-.168.612-.252 1.044-.252.336 0 .66.06.972.18v-.936c.024-.552.036-.9.036-1.044 0-1.512-.42-2.832-1.26-3.96-.816-1.152-1.848-1.728-3.096-1.728-1.08 0-2.076.444-2.988 1.332-.888.864-1.332 2.232-1.332 4.104 0 .672.036 1.548.108 2.628.288-.168.66-.252 1.116-.252.432 0 .696.06.792.18.24 0 .36.48.36 1.44 0 .216-.12 1.2-.36 2.952-1.728.84-3.924 1.26-6.588 1.26-2.184 0-3.54-.336-4.068-1.008-.216-.264-.324-.78-.324-1.548Zm26.051 0c0-1.488.324-2.412.972-2.772.6-.216 1.416-.324 2.448-.324.144 0 .336.024.576.072 0-.696-.024-1.812-.072-3.348-.048-1.56-.072-2.736-.072-3.528-.096 0-.492.036-1.188.108-.696.048-1.104.072-1.224.072a1.97 1.97 0 0 1-.432-.072 1.97 1.97 0 0 0-.432-.072c-.096-.096-.144-.348-.144-.756 0-.648.096-1.452.288-2.412.192-.984.372-1.584.54-1.8.696-.432 1.968-.648 3.816-.648 1.464 0 2.412.084 2.844.252.456.144.684.516.684 1.116 0 .72-.06 1.44-.18 2.16 2.256-2.592 4.692-3.888 7.308-3.888 4.128 0 6.192 2.904 6.192 8.712 0 1.176-.072 2.316-.216 3.42 0-.048.108-.072.324-.072.36 0 .924.06 1.692.18.216.24.324 1.02.324 2.34 0 1.656-.12 2.676-.36 3.06-1.8.48-3.36.72-4.68.72-.936 0-2.016-.216-3.24-.648-.168-.12-.348-.54-.54-1.26-.192-.744-.288-1.38-.288-1.908 0-.792.216-1.476.648-2.052.264-.168.612-.252 1.044-.252.336 0 .66.06.972.18v-.936c.024-.552.036-.9.036-1.044 0-1.512-.42-2.832-1.26-3.96-.816-1.152-1.848-1.728-3.096-1.728-1.08 0-2.076.444-2.988 1.332-.888.864-1.332 2.232-1.332 4.104 0 .672.036 1.548.108 2.628.288-.168.66-.252 1.116-.252.432 0 .696.06.792.18.24 0 .36.48.36 1.44 0 .216-.12 1.2-.36 2.952-1.728.84-3.924 1.26-6.588 1.26-2.184 0-3.54-.336-4.068-1.008-.216-.264-.324-.78-.324-1.548ZM111.346 52.894h-1.512v4.986h-2.376V45.442h3.708c3.288 0 4.932 1.218 4.932 3.654 0 .828-.204 1.512-.612 2.052-.408.54-1.044.978-1.908 1.314l3.258 5.418H114.1l-2.754-4.986Zm-1.512-1.71h1.476c.756 0 1.326-.162 1.71-.486.396-.336.594-.87.594-1.602 0-.672-.204-1.158-.612-1.458-.396-.312-1.026-.468-1.89-.468h-1.278v4.014Zm16.104 1.71c0 .12-.018.432-.054.936h-5.976c.072.924.312 1.584.72 1.98.408.396.948.594 1.62.594.42 0 .816-.066 1.188-.198.372-.144.768-.36 1.188-.648l.954 1.314c-1.056.852-2.232 1.278-3.528 1.278-1.452 0-2.574-.444-3.366-1.332-.78-.888-1.17-2.1-1.17-3.636 0-.972.168-1.842.504-2.61.336-.78.822-1.386 1.458-1.818.636-.444 1.392-.666 2.268-.666 1.332 0 2.364.426 3.096 1.278.732.84 1.098 2.016 1.098 3.528Zm-2.286-.666c0-1.668-.618-2.502-1.854-2.502-.564 0-1.008.21-1.332.63-.312.408-.498 1.068-.558 1.98h3.744v-.108Zm11.215 3.132c0 .372.054.648.162.828.12.168.306.3.558.396l-.486 1.53c-.54-.048-.984-.18-1.332-.396-.336-.216-.594-.546-.774-.99-.324.48-.732.84-1.224 1.08a3.73 3.73 0 0 1-1.62.342c-.948 0-1.698-.27-2.25-.81s-.828-1.248-.828-2.124c0-1.032.372-1.818 1.116-2.358.756-.552 1.83-.828 3.222-.828h1.188v-.54c0-.612-.144-1.038-.432-1.278-.276-.252-.726-.378-1.35-.378-.696 0-1.536.168-2.52.504l-.54-1.566c1.188-.456 2.34-.684 3.456-.684 2.436 0 3.654 1.092 3.654 3.276v3.996Zm-4.104 1.116c.78 0 1.392-.39 1.836-1.17V53.38h-.954c-1.488 0-2.232.552-2.232 1.656 0 .456.114.81.342 1.062.228.252.564.378 1.008.378Zm8.967 1.674c-.732 0-1.308-.21-1.728-.63-.408-.432-.612-1.038-.612-1.818v-11.16l2.304-.252v11.34c0 .444.18.666.54.666.18 0 .36-.03.54-.09l.486 1.62c-.48.216-.99.324-1.53.324Zm14.848-12.708-.252 1.764h-4.59v3.474h3.996v1.764h-3.996v3.654h4.914v1.782h-7.29V45.442h7.218Zm5.173 2.646c1.284 0 2.412.378 3.384 1.134l-.9 1.35c-.816-.516-1.614-.774-2.394-.774-.456 0-.81.09-1.062.27a.783.783 0 0 0-.378.684c0 .216.054.396.162.54.108.144.3.282.576.414.288.12.708.258 1.26.414 1.032.276 1.794.642 2.286 1.098.504.456.756 1.092.756 1.908 0 .948-.384 1.692-1.152 2.232-.768.528-1.722.792-2.862.792-.78 0-1.494-.12-2.142-.36a5.198 5.198 0 0 1-1.656-.99l1.152-1.296c.828.624 1.692.936 2.592.936.516 0 .924-.102 1.224-.306.312-.204.468-.486.468-.846 0-.276-.06-.492-.18-.648-.108-.168-.312-.312-.612-.432-.288-.132-.744-.288-1.368-.468-.972-.264-1.686-.63-2.142-1.098-.456-.48-.684-1.074-.684-1.782 0-.528.15-1.002.45-1.422.312-.42.744-.75 1.296-.99.564-.24 1.206-.36 1.926-.36Zm11.009 9.342c-.336.24-.714.42-1.134.54-.408.12-.828.18-1.26.18-.936-.012-1.65-.276-2.142-.792-.48-.528-.72-1.302-.72-2.322v-5.022h-1.494v-1.656h1.494v-2.106l2.304-.27v2.376h2.214l-.234 1.656h-1.98v4.968c0 .468.078.804.234 1.008.168.204.426.306.774.306.348 0 .726-.114 1.134-.342l.81 1.476Zm8.158-2.07c0 .372.054.648.162.828.12.168.306.3.558.396l-.486 1.53c-.54-.048-.984-.18-1.332-.396-.336-.216-.594-.546-.774-.99-.324.48-.732.84-1.224 1.08a3.73 3.73 0 0 1-1.62.342c-.948 0-1.698-.27-2.25-.81s-.828-1.248-.828-2.124c0-1.032.372-1.818 1.116-2.358.756-.552 1.83-.828 3.222-.828h1.188v-.54c0-.612-.144-1.038-.432-1.278-.276-.252-.726-.378-1.35-.378-.696 0-1.536.168-2.52.504l-.54-1.566c1.188-.456 2.34-.684 3.456-.684 2.436 0 3.654 1.092 3.654 3.276v3.996Zm-4.104 1.116c.78 0 1.392-.39 1.836-1.17V53.38h-.954c-1.488 0-2.232.552-2.232 1.656 0 .456.114.81.342 1.062.228.252.564.378 1.008.378Zm12.346.954c-.336.24-.714.42-1.134.54-.408.12-.828.18-1.26.18-.936-.012-1.65-.276-2.142-.792-.48-.528-.72-1.302-.72-2.322v-5.022h-1.494v-1.656h1.494v-2.106l2.304-.27v2.376h2.214l-.234 1.656h-1.98v4.968c0 .468.078.804.234 1.008.168.204.426.306.774.306.348 0 .726-.114 1.134-.342l.81 1.476Zm8.809-4.536c0 .12-.018.432-.054.936h-5.976c.072.924.312 1.584.72 1.98.408.396.948.594 1.62.594.42 0 .816-.066 1.188-.198.372-.144.768-.36 1.188-.648l.954 1.314c-1.056.852-2.232 1.278-3.528 1.278-1.452 0-2.574-.444-3.366-1.332-.78-.888-1.17-2.1-1.17-3.636 0-.972.168-1.842.504-2.61.336-.78.822-1.386 1.458-1.818.636-.444 1.392-.666 2.268-.666 1.332 0 2.364.426 3.096 1.278.732.84 1.098 2.016 1.098 3.528Zm-2.286-.666c0-1.668-.618-2.502-1.854-2.502-.564 0-1.008.21-1.332.63-.312.408-.498 1.068-.558 1.98h3.744v-.108Z" fill="#fff"/></svg>